<svg width="578" height="355" viewBox="0 0 578 355" fill="none" xmlns="http://www.w3.org/2000/svg">
<path d="M440.391 95.1655L441.193 97.9966L438.641 116.026L433.881 117.349L436.402 100.122L430.109 101.854L430.968 104.934L427.099 106.025L425.245 99.376L440.391 95.1655Z" fill="#E0E0E0"/>
<path d="M459.783 103.739C460.714 107.091 459.069 110.692 453.667 112.192C451.127 112.951 448.421 112.951 445.881 112.192L446.684 108.358C448.566 109.044 450.617 109.117 452.543 108.567C454.726 107.957 455.826 106.666 455.401 105.126C454.975 103.586 453.739 102.937 450.304 103.891L445.488 105.238L443.497 94.3232L455.039 91.1152L455.995 94.636L448.096 96.8255L448.803 100.507L450.344 100.074C455.938 98.4936 458.852 100.394 459.783 103.739Z" fill="#E0E0E0"/>
<path d="M459.43 95.2535C458.579 92.1738 459.735 89.6395 462.28 88.9338C464.824 88.228 467.096 89.7358 467.978 92.8796C468.861 96.0234 467.649 98.4936 465.129 99.1994C462.609 99.9051 460.289 98.3332 459.43 95.2535ZM466.654 93.2565C465.972 90.8024 464.407 89.6636 462.641 90.1528C460.875 90.642 460.128 92.4465 460.811 94.8846C461.493 97.3227 463.034 98.4856 464.824 97.9883C466.614 97.4911 467.304 95.7187 466.622 93.2565H466.654ZM473.806 85.8862L475.411 85.4451L467.754 107.941L466.148 108.382L473.806 85.8862ZM473.541 100.948C472.69 97.868 473.87 95.3337 476.382 94.628C478.895 93.9222 481.198 95.4941 482.089 98.5738C482.98 101.653 481.784 104.188 479.24 104.894C476.695 105.599 474.368 104.027 473.509 100.948H473.541ZM480.765 98.9507C480.091 96.5447 478.542 95.3498 476.752 95.847C474.962 96.3442 474.231 98.1167 474.922 100.571C475.612 103.025 477.169 104.164 478.935 103.675C480.701 103.185 481.375 101.381 480.701 98.9507H480.765Z" fill="#E0E0E0"/>
<path d="M481.621 358.428L538.135 358.872L538.695 287.592L482.181 287.149L481.621 358.428Z" fill="#EBEBEB"/>
<path d="M516.58 289.707L515.577 358.719L506.651 358.654L508.561 289.642L516.58 289.707Z" fill="#FAFAFA"/>
<path d="M449.726 289.185L482.146 289.442L538.661 289.883L482.089 297.318L481.608 358.454L449.196 358.205L449.726 289.185Z" fill="#E0E0E0"/>
<path d="M467.377 289.322L466.084 358.334L456.468 358.262L458.041 289.25L467.377 289.322Z" fill="#FAFAFA"/>
<path d="M493.038 268.317C493.038 268.462 492.083 268.638 490.341 268.807C487.879 269.046 485.406 269.156 482.932 269.135C479.197 269.151 475.476 268.663 471.871 267.684C471.311 267.503 470.773 267.261 470.266 266.962C469.67 266.62 469.164 266.142 468.789 265.566C468.402 264.948 468.196 264.234 468.195 263.505C468.197 262.867 468.278 262.231 468.436 261.613C468.941 259.296 469.642 257.026 470.531 254.828C471.022 253.679 471.635 252.588 472.361 251.572C473.084 250.527 473.996 249.627 475.05 248.917C475.615 248.536 476.247 248.264 476.912 248.115C477.589 247.967 478.29 247.967 478.967 248.115C480.12 248.445 481.187 249.025 482.089 249.815C485.01 252.178 487.498 255.03 489.442 258.244C490.749 260.386 491.751 262.699 492.42 265.117C492.861 266.834 492.909 267.812 492.789 267.844C492.436 267.948 491.641 264.091 488.198 259.022C486.176 256.098 483.709 253.508 480.885 251.347C480.181 250.758 479.361 250.323 478.477 250.072C478.069 249.991 477.647 249.995 477.24 250.083C476.833 250.172 476.448 250.342 476.109 250.585C475.285 251.169 474.572 251.897 474.006 252.734C473.374 253.634 472.836 254.596 472.401 255.606C471.567 257.69 470.894 259.835 470.386 262.022C470.092 262.8 470.112 263.663 470.443 264.428C470.953 265.091 471.666 265.57 472.473 265.791C473.388 266.088 474.317 266.334 475.259 266.529C476.182 266.737 477.097 266.898 477.988 267.034C479.762 267.315 481.431 267.475 482.972 267.579C486.046 267.788 488.591 267.828 490.301 267.916C492.01 268.005 493.03 268.173 493.038 268.317Z" fill="#E0E0E0"/>
<path d="M491.866 268.838C491.866 268.694 492.893 268.389 494.796 267.956C496.698 267.523 499.475 266.954 502.822 266.144C506.76 265.236 510.619 264.019 514.365 262.503C515.392 262.115 516.366 261.597 517.262 260.963C517.644 260.692 517.961 260.342 518.193 259.936C518.378 259.575 518.435 259.163 518.354 258.765C518.234 258.236 518.048 257.724 517.8 257.242C517.535 256.672 517.262 256.095 516.997 255.517C516.458 254.37 515.842 253.26 515.151 252.197C514.472 251.164 513.663 250.224 512.743 249.398C511.91 248.606 510.935 247.978 509.87 247.545C508.919 247.173 507.871 247.128 506.892 247.417C505.901 247.766 504.992 248.311 504.219 249.021C501.206 251.657 498.601 254.725 496.489 258.124C495.065 260.427 493.912 262.886 493.054 265.454C492.452 267.291 492.211 268.341 492.05 268.317C491.89 268.293 491.898 267.202 492.267 265.254C492.846 262.496 493.836 259.841 495.205 257.378C497.237 253.713 499.853 250.403 502.951 247.577C503.902 246.658 505.037 245.95 506.282 245.5C507.679 245.057 509.186 245.093 510.56 245.605C511.232 245.846 511.873 246.167 512.47 246.559C513.053 246.945 513.608 247.371 514.132 247.834C515.177 248.778 516.092 249.857 516.853 251.042C517.593 252.186 518.255 253.378 518.835 254.611L519.638 256.383C519.961 257.033 520.194 257.724 520.328 258.437C520.479 259.275 520.341 260.141 519.935 260.891C519.56 261.548 519.045 262.115 518.426 262.551C517.383 263.274 516.25 263.856 515.055 264.283C511.178 265.756 507.171 266.863 503.087 267.587C499.628 268.229 496.81 268.558 494.868 268.758C492.925 268.959 491.89 268.975 491.866 268.838Z" fill="#FAFAFA"/>
<path d="M439.439 289.082L522.513 289.734L522.698 266.14L439.625 265.488L439.439 289.082Z" fill="#E0E0E0"/>
<path d="M469.999 289.315L545.086 289.904L545.272 266.31L470.184 265.72L469.999 289.315Z" fill="#EBEBEB"/>
<path d="M522.215 266.16L521.693 289.859L512.936 289.674L513.546 266.088L522.215 266.16Z" fill="#FAFAFA"/>
<path d="M460 265.791L459.149 289.281L449.525 289.201L450.039 265.598L460 265.791Z" fill="#FAFAFA"/>
<path d="M524.729 359.264L550.542 359.466L550.798 326.906L524.985 326.704L524.729 359.264Z" fill="#EBEBEB"/>
<path d="M540.692 327.89L540.235 359.408L536.149 359.384L537.024 327.858L540.692 327.89Z" fill="#FAFAFA"/>
<path d="M510.151 327.649L524.96 327.761L550.774 327.97L524.936 331.362L524.711 359.288L509.91 359.176L510.151 327.649Z" fill="#E0E0E0"/>
<path d="M518.209 327.713L517.623 359.24L513.225 359.2L513.947 327.681L518.209 327.713Z" fill="#FAFAFA"/>
<path d="M529.936 318.121C529.936 318.386 528.211 318.787 525.305 318.923C523.55 318.988 521.795 318.796 520.096 318.354C519.409 318.174 518.807 317.76 518.394 317.183C518.16 316.816 518.035 316.391 518.033 315.956C518.033 315.619 518.071 315.282 518.145 314.953C518.377 313.857 518.705 312.784 519.124 311.745C519.365 311.179 519.666 310.642 520.023 310.141C520.393 309.599 520.865 309.133 521.412 308.77C521.734 308.558 522.096 308.414 522.475 308.347C522.855 308.279 523.244 308.289 523.619 308.377C524.214 308.554 524.762 308.861 525.225 309.275C526.586 310.396 527.731 311.754 528.604 313.285C530.057 315.94 530.041 317.857 529.792 317.889C529.543 317.921 528.989 316.285 527.384 314.087C526.445 312.829 525.325 311.715 524.061 310.783C523.801 310.563 523.498 310.402 523.17 310.31C523.054 310.292 522.936 310.299 522.822 310.329C522.709 310.36 522.603 310.413 522.512 310.486C522.198 310.719 521.926 311.004 521.709 311.328C521.446 311.708 521.223 312.114 521.043 312.539C520.671 313.459 520.371 314.405 520.144 315.37C520.023 315.82 520.047 316.02 520.088 316.068C520.251 316.268 520.473 316.411 520.722 316.477C521.508 316.737 522.313 316.938 523.13 317.079C523.932 317.223 524.671 317.319 525.361 317.391C528.138 317.68 529.928 317.809 529.936 318.121Z" fill="#E0E0E0"/>
<path d="M529.399 318.394C529.35 318.089 531.285 317.592 534.327 316.79C536.085 316.323 537.81 315.736 539.488 315.034C539.911 314.866 540.313 314.648 540.684 314.384C540.792 314.305 540.882 314.204 540.949 314.087C540.949 314.023 540.949 314.023 540.949 313.903C540.793 313.444 540.6 312.999 540.371 312.572C540.133 312.072 539.865 311.587 539.568 311.12C539.287 310.692 538.956 310.299 538.581 309.949C538.253 309.638 537.873 309.389 537.457 309.211C537.137 309.076 536.781 309.053 536.446 309.147C536.063 309.277 535.71 309.485 535.411 309.757C534.056 310.911 532.867 312.247 531.879 313.727C530.185 316.277 529.832 318.234 529.471 318.186C529.342 318.186 529.254 317.648 529.358 316.726C529.544 315.42 529.954 314.156 530.57 312.989C531.472 311.238 532.669 309.656 534.11 308.313C534.594 307.839 535.174 307.475 535.812 307.246C536.562 306.998 537.374 307.012 538.116 307.286C538.467 307.405 538.802 307.57 539.111 307.776C539.393 307.964 539.661 308.174 539.913 308.401C540.428 308.875 540.879 309.414 541.254 310.005C541.605 310.547 541.919 311.113 542.193 311.697C542.321 311.978 542.442 312.251 542.57 312.499C542.736 312.843 542.855 313.207 542.923 313.582C543.006 314.085 542.922 314.6 542.683 315.05C542.47 315.418 542.18 315.735 541.832 315.98C541.315 316.324 540.754 316.594 540.162 316.782C538.356 317.444 536.487 317.92 534.584 318.202C531.445 318.643 529.447 318.619 529.399 318.394Z" fill="#FAFAFA"/>
<path d="M505.468 327.585L543.409 327.883L543.493 317.104L505.553 316.807L505.468 327.585Z" fill="#E0E0E0"/>
<path d="M519.419 327.697L553.716 327.966L553.801 317.187L519.504 316.918L519.419 327.697Z" fill="#EBEBEB"/>
<path d="M543.261 317.135L543.02 327.954L539.023 327.874L539.303 317.103L543.261 317.135Z" fill="#FAFAFA"/>
<path d="M514.838 316.959L514.453 327.689L510.054 327.657L510.295 316.87L514.838 316.959Z" fill="#FAFAFA"/>
<path d="M33.5682 359.154L79.8646 359.518L80.3236 301.126L34.0272 300.762L33.5682 359.154Z" fill="#EBEBEB"/>
<path d="M62.1984 302.835L61.3796 359.376L54.0593 359.32L55.6326 302.787L62.1984 302.835Z" fill="#FAFAFA"/>
<path d="M7.43246 302.41L33.9927 302.619L80.2905 302.98L33.9445 309.075L33.5512 359.16L6.99902 358.951L7.43246 302.41Z" fill="#E0E0E0"/>
<path d="M21.8885 302.522L20.837 359.055L12.9548 358.999L14.239 302.466L21.8885 302.522Z" fill="#FAFAFA"/>
<path d="M42.9103 285.32C42.9103 285.608 42.1076 285.905 40.719 286.194C37.281 286.841 33.7721 287.03 30.2844 286.755C29.4817 286.683 28.679 286.595 27.8764 286.45C26.9818 286.316 26.0969 286.123 25.2276 285.873C24.6817 285.706 24.1566 285.477 23.6624 285.191C23.0173 284.824 22.4675 284.31 22.057 283.692C21.6222 283.002 21.3861 282.205 21.3748 281.39C21.3703 280.768 21.4431 280.149 21.5915 279.545C22.006 277.572 22.5942 275.64 23.3493 273.771C23.7807 272.754 24.3189 271.787 24.9547 270.884C25.2942 270.428 25.6615 269.995 26.0543 269.584C26.4863 269.131 26.9745 268.735 27.5071 268.405C28.0978 268.023 28.7533 267.751 29.4416 267.603C30.1667 267.458 30.9148 267.475 31.6328 267.652C32.7426 267.97 33.7661 268.535 34.6268 269.304C37.0811 271.34 39.1382 273.812 40.695 276.594C41.7406 278.444 42.4703 280.455 42.8541 282.545C43.0869 284.02 42.9665 284.87 42.7016 284.951C42.0836 285.103 41.0963 282.071 38.2067 278.214C36.5114 275.988 34.5058 274.017 32.2509 272.359C31.8083 271.987 31.291 271.713 30.7339 271.557C30.5519 271.532 30.3668 271.545 30.19 271.594C30.0132 271.644 29.8485 271.73 29.7065 271.846C29.4591 272.02 29.2305 272.219 29.0242 272.439C28.7994 272.688 28.5506 273.001 28.3259 273.306C27.8656 273.973 27.473 274.685 27.154 275.431C26.4991 277.072 25.9626 278.758 25.5486 280.476C25.4637 280.752 25.4125 281.037 25.3961 281.326C25.3961 281.51 25.3961 281.526 25.3961 281.566C25.6648 281.887 26.0266 282.117 26.4316 282.224C27.1291 282.47 27.8391 282.678 28.5586 282.849C29.2891 283.034 30.0115 283.178 30.7098 283.315C32.1145 283.571 33.4549 283.756 34.7231 283.9C37.1953 284.181 39.2502 284.349 40.6709 284.566C42.0916 284.782 42.9023 285.031 42.9103 285.32Z" fill="#E0E0E0"/>
<path d="M41.9552 285.737C41.8508 285.143 45.3183 284.181 50.7845 282.681C53.9238 281.825 57 280.753 59.9911 279.473C60.7333 279.182 61.4348 278.797 62.078 278.326C62.254 278.206 62.3997 278.047 62.5034 277.861C62.5034 277.789 62.5034 277.861 62.5034 277.66C62.4134 277.338 62.2896 277.026 62.1342 276.73L61.468 275.343C61.0427 274.456 60.5629 273.596 60.0312 272.768C59.5416 272.012 58.9591 271.319 58.2975 270.707C57.987 270.414 57.6542 270.146 57.3021 269.905C57.0084 269.698 56.6903 269.529 56.355 269.4C55.8253 269.172 55.2342 269.13 54.6774 269.28C54.0144 269.506 53.4051 269.866 52.8875 270.338C50.4668 272.385 48.3363 274.751 46.5544 277.372C43.4963 281.895 42.806 285.392 42.1719 285.296C41.899 285.296 41.7063 284.325 41.8829 282.657C42.1901 280.297 42.9072 278.009 44.002 275.896C45.6071 272.731 47.753 269.87 50.343 267.443C51.2325 266.574 52.2969 265.904 53.4654 265.478C54.8594 265.024 56.3657 265.049 57.7436 265.55C58.3852 265.775 58.9971 266.076 59.5657 266.449C60.0976 266.791 60.6021 267.175 61.0747 267.595C61.9994 268.434 62.8091 269.392 63.4827 270.442C64.1179 271.427 64.6864 272.453 65.1843 273.514L65.8586 274.99C66.1648 275.623 66.3835 276.295 66.5087 276.987C66.6683 277.935 66.5043 278.91 66.0432 279.754C65.6451 280.446 65.0965 281.041 64.4379 281.494C63.4954 282.14 62.4693 282.656 61.3877 283.026C58.1378 284.21 54.7722 285.049 51.3464 285.528C49.0797 285.875 46.7924 286.071 44.4996 286.114C42.9184 286.162 41.9953 286.025 41.9552 285.737Z" fill="#FAFAFA"/>
<path d="M-0.981389 302.345L67.0666 302.879L67.2185 283.552L-0.829461 283.018L-0.981389 302.345Z" fill="#E0E0E0"/>
<path d="M24.0316 302.537L85.5461 303.02L85.698 283.692L24.1835 283.21L24.0316 302.537Z" fill="#EBEBEB"/>
<path d="M66.8137 283.547L66.3883 302.964L59.2125 302.811L59.7101 283.491L66.8137 283.547Z" fill="#FAFAFA"/>
<path d="M15.8444 283.242L15.1541 302.49L7.26385 302.426L7.68927 283.09L15.8444 283.242Z" fill="#FAFAFA"/>
<path d="M86.6075 61.4975L87.4101 64.5531L75.1695 67.697L74.5434 65.291L79.2791 57.7923C80.3627 56.0599 80.4029 55.1617 80.2022 54.3758C79.8731 53.1006 78.8056 52.5873 77.0959 53.0284C76.4397 53.1676 75.8282 53.4666 75.3156 53.899C74.8031 54.3313 74.4055 54.8836 74.1581 55.5066L70.9474 54.4479C71.7501 52.2986 73.6926 50.5422 76.5661 49.7883C80.1781 48.866 83.0597 50.1011 83.7901 52.9963C84.1995 54.6003 84.1272 56.1161 82.3935 58.8028L79.5761 63.2699L86.6075 61.4975Z" fill="#E0E0E0"/>
<path d="M86.8162 56.0758C85.4436 50.7265 87.6189 46.9411 91.6322 45.9225C95.6455 44.904 99.3538 47.1656 100.726 52.507C102.099 57.8483 99.9237 61.6337 95.9104 62.6603C91.8971 63.6868 88.1888 61.4172 86.8162 56.0758ZM96.9298 53.4774C95.9827 49.7962 94.297 48.6092 92.4188 49.0904C90.5406 49.5716 89.6657 51.4242 90.6128 55.0974C91.5599 58.7706 93.2456 59.9656 95.0997 59.4924C96.9539 59.0192 97.8769 57.1505 96.9298 53.4774Z" fill="#E0E0E0"/>
<path d="M101.625 48.2083C100.943 45.5697 101.979 43.3963 104.154 42.875C106.329 42.3537 108.255 43.677 108.97 46.3316C109.684 48.9863 108.593 51.1436 106.441 51.6649C104.29 52.1862 102.3 50.8389 101.625 48.2083ZM107.782 46.6043C107.236 44.4951 105.92 43.5006 104.419 43.8936C102.918 44.2865 102.243 45.8023 102.813 47.9036C103.383 50.0048 104.643 51.0073 106.176 50.6143C107.71 50.2213 108.32 48.7296 107.782 46.6284V46.6043ZM113.994 40.445L115.359 40.1001L108.44 59.1476L107.075 59.5005L113.994 40.445ZM113.513 53.277C112.839 50.6384 113.89 48.465 116.041 47.9437C118.192 47.4224 120.151 48.7457 120.857 51.4003C121.564 54.0549 120.504 56.2123 118.329 56.7256C116.154 57.2388 114.195 55.9236 113.513 53.293V53.277ZM119.669 51.673C119.132 49.5878 117.839 48.5692 116.306 48.9622C114.773 49.3552 114.131 50.8469 114.701 52.9722C115.271 55.0975 116.563 56.0679 118.064 55.683C119.565 55.298 120.207 53.7902 119.677 51.7131L119.669 51.673Z" fill="#E0E0E0"/>
<path d="M238.657 112.208C238.721 115.52 236.249 118.624 230.63 118.688C227.983 118.785 225.367 118.098 223.109 116.715L224.811 113.21C226.465 114.336 228.428 114.919 230.429 114.879C232.701 114.839 234.09 113.892 234.065 112.288C234.065 110.804 232.926 109.882 230.349 109.946H228.27L228.222 106.947L232.179 102.311L223.815 102.456L223.759 98.8065L237.501 98.574L237.557 101.517L233.231 106.666C236.778 107.171 238.609 109.321 238.657 112.208Z" fill="#E0E0E0"/>
<path d="M240.695 108.366C240.583 101.854 244.091 98.1569 248.907 98.0687C253.723 97.9805 257.383 101.598 257.495 108.07C257.608 114.542 254.108 118.287 249.26 118.367C244.412 118.448 240.808 114.839 240.695 108.366ZM252.96 108.15C252.88 103.699 251.275 101.87 249.003 101.91C246.731 101.95 245.222 103.827 245.303 108.326C245.383 112.826 246.98 114.606 249.22 114.566C251.459 114.526 253.032 112.609 252.96 108.15Z" fill="#E0E0E0"/>
<path d="M259.751 103.41C259.695 100.202 261.452 98.0527 264.093 98.0046C266.734 97.9565 268.564 100.034 268.62 103.258C268.676 106.482 266.886 108.615 264.278 108.655C261.669 108.695 259.807 106.602 259.751 103.41ZM267.215 103.282C267.167 100.731 265.939 99.2717 264.117 99.2717C262.295 99.2717 261.107 100.876 261.155 103.394C261.204 105.912 262.399 107.404 264.254 107.404C266.108 107.404 267.256 105.864 267.215 103.282ZM275.989 97.9404H277.642L264.575 117.79H262.921L275.989 97.9404ZM271.975 112.449C271.927 109.241 273.709 107.091 276.318 107.051C278.926 107.011 280.789 109.104 280.845 112.296C280.901 115.488 279.143 117.654 276.502 117.702C273.862 117.75 271.999 115.649 271.943 112.449H271.975ZM279.44 112.32C279.4 109.802 278.196 108.31 276.342 108.31C274.488 108.31 273.34 109.874 273.38 112.425C273.42 114.975 274.656 116.435 276.478 116.435C278.3 116.435 279.456 114.847 279.408 112.32H279.44Z" fill="#E0E0E0"/>
<path d="M333.652 51.5928C333.267 54.0951 331.092 55.9958 327.046 55.3783C325.132 55.1209 323.335 54.3097 321.877 53.0445L323.555 50.7347C324.599 51.7522 325.94 52.4121 327.383 52.6194C329.029 52.868 330.145 52.3387 330.321 51.1838C330.498 50.0289 329.872 49.235 327.303 48.842L323.683 48.2886L325.626 40.437L334.262 41.7523L333.861 44.3829L327.953 43.4846L327.319 46.1312L328.475 46.3077C332.665 46.9493 334.038 49.0826 333.652 51.5928Z" fill="#F5F5F5"/>
<path d="M335.386 49.1708C336.1 44.4951 339.094 42.2415 342.61 42.7548C346.126 43.2681 348.277 46.3237 347.562 50.9994C346.848 55.675 343.87 57.9206 340.338 57.4154C336.807 56.9101 334.68 53.8384 335.386 49.1708ZM344.215 50.5182C344.705 47.3102 343.774 45.7944 342.136 45.5458C340.499 45.2971 339.183 46.46 338.693 49.6761C338.203 52.8921 339.126 54.3918 340.748 54.6404C342.369 54.8891 343.742 53.7342 344.231 50.5262L344.215 50.5182Z" fill="#F5F5F5"/>
<path d="M349.698 47.9357C350.051 45.6339 351.584 44.2946 353.486 44.5833C355.388 44.872 356.448 46.5883 356.095 48.9141C355.742 51.2399 354.192 52.5552 352.306 52.2665C350.42 51.9778 349.344 50.2454 349.698 47.9357ZM362.083 45.9948L363.279 46.1793L351.407 58.8509L350.211 58.6664L362.083 45.9948ZM355.124 48.7617C355.404 46.9171 354.698 45.6981 353.382 45.4976C352.065 45.2971 351.03 46.2996 350.749 48.0961C350.468 49.8926 351.15 51.1517 352.491 51.3602C353.831 51.5687 354.803 50.5983 355.083 48.7617H355.124ZM357.395 55.9316C357.748 53.6299 359.297 52.2905 361.184 52.5793C363.07 52.868 364.146 54.6083 363.792 56.9101C363.439 59.2118 361.906 60.5511 360.004 60.2624C358.101 59.9737 357.002 58.2414 357.355 55.9316H357.395ZM362.781 56.7336C363.054 54.9131 362.38 53.67 361.039 53.4695C359.699 53.269 358.687 54.2234 358.406 56.0599C358.126 57.8965 358.832 59.1316 360.148 59.3321C361.465 59.5326 362.46 58.5461 362.741 56.7577L362.781 56.7336Z" fill="#F5F5F5"/>
<path d="M11.51 119.651L8.57226 132.186L5.69871 131.528L8.10671 121.319L5.59436 120.733L6.14017 118.399L11.51 119.651Z" fill="#F5F5F5"/>
<path d="M12.2324 126.435C13.1956 122.297 16.045 120.485 19.1273 121.206C22.2095 121.928 23.9433 124.815 22.9801 128.946C22.0169 133.076 19.1915 134.896 16.0852 134.175C12.9788 133.453 11.2611 130.574 12.2324 126.435ZM20.0664 128.264C20.7326 125.417 20.0022 123.997 18.5494 123.66C17.0965 123.324 15.8363 124.27 15.1701 127.117C14.5039 129.964 15.2263 131.384 16.6631 131.721C18.0999 132.057 19.3922 131.111 20.0664 128.264Z" fill="#F5F5F5"/>
<path d="M36.3526 125.465L37.4121 125.714L25.9018 136.244L24.8503 135.995L36.3526 125.465ZM25.1152 126.339C25.5968 124.294 27.0657 123.203 28.7513 123.596C30.4369 123.989 31.2636 125.601 30.782 127.663C30.3004 129.724 28.8235 130.79 27.154 130.405C25.4844 130.02 24.6657 128.376 25.1393 126.339H25.1152ZM29.8831 127.454C30.2683 125.85 29.7225 124.679 28.5587 124.406C27.3948 124.134 26.3915 124.936 26.0142 126.548C25.637 128.16 26.1587 129.323 27.3466 129.595C28.5346 129.868 29.5299 129.122 29.9071 127.454H29.8831ZM31.4242 134.046C31.8978 132.001 33.3827 130.919 35.0522 131.304C36.7218 131.689 37.5646 133.333 37.091 135.37C36.6174 137.407 35.1405 138.506 33.4549 138.113C31.7693 137.72 30.9667 136.084 31.4483 134.046H31.4242ZM36.2 135.161C36.5773 133.557 36.0556 132.386 34.8756 132.114C33.6957 131.841 32.7084 132.627 32.3312 134.255C31.9539 135.883 32.4917 137.03 33.6556 137.303C34.8195 137.575 35.8388 136.773 36.2 135.161Z" fill="#F5F5F5"/>
<path d="M87.4904 249.318C73.516 235.034 51.6273 229.027 32.3151 234.192C48.7839 245.4 68.2148 251.466 88.1406 251.619" fill="#191F20"/>
<path d="M68.7722 183.104C71.0759 166.856 64.7589 148.618 52.5824 136.773C52.1811 152.877 59.0038 170.994 68.7722 183.104Z" fill="#191F20"/>
<path d="M78.5086 213.789C69.7052 197.101 55.6974 183.736 38.608 175.718C43.6889 194.421 59.7021 209.723 78.629 213.965" fill="#191F20"/>
<path d="M80.5233 219.748C70.7067 220.021 60.7616 219.676 51.2661 217.166C41.7705 214.655 32.6763 209.827 26.3834 202.312C45.5978 202.38 64.3668 208.101 80.3467 218.762" fill="#191F20"/>
<path d="M75.5307 200.211C80.5153 181.541 88.7426 168.628 103.423 158.17C104.548 167.349 102.356 176.627 97.2425 184.334C92.1289 192.042 84.4296 197.672 75.5307 200.211Z" fill="#191F20"/>
<path d="M112.606 232.403C112.642 226.958 111.067 221.623 108.078 217.07C105.089 212.517 100.819 208.948 95.806 206.812C96.6087 216.436 104.202 227.599 112.606 232.403Z" fill="#191F20"/>
<path d="M117.269 216.66C118.385 201.069 129.47 186.641 144.263 181.541C140.9 197.139 131.878 210.124 117.269 216.66Z" fill="#191F20"/>
<path d="M110.23 244.61C113.689 239.661 119.34 236.59 125.192 235.05C131.043 233.51 137.151 233.39 143.196 233.261C139.077 237.729 134.038 241.252 128.426 243.587C122.814 245.923 116.763 247.016 110.688 246.791" fill="#191F20"/>
<path d="M103.207 284.381C114.227 280.985 126.122 281.837 136.545 286.77C146.968 291.704 155.163 300.36 159.514 311.032C139.062 307.166 118.875 298.079 103.207 284.381Z" fill="#191F20"/>
<path d="M80.7641 270.555C84.1593 280.588 83.5092 292.722 75.948 301.368C74.4436 296.192 74.0952 290.75 74.9274 285.426C75.7595 280.102 77.7521 275.025 80.7641 270.555Z" fill="#191F20"/>
<path d="M67.504 264.981C66.9531 271.449 64.7434 277.666 61.0879 283.032C57.4324 288.398 52.4546 292.733 46.6347 295.617C46.3638 295.791 46.0601 295.906 45.7425 295.957C45.4249 296.008 45.1002 295.994 44.7885 295.914C43.8655 295.545 43.7852 294.31 43.8976 293.299C45.3745 280.467 54.9102 268.012 67.504 264.981Z" fill="#191F20"/>
<path d="M58.8272 263.673C55.9441 266.784 52.4523 269.271 48.568 270.978C44.6838 272.686 40.49 273.578 36.2465 273.6C32.003 273.622 27.8002 272.773 23.8986 271.105C19.997 269.438 16.4798 266.987 13.5648 263.906C27.9486 262.302 44.5558 261.283 58.8272 263.673Z" fill="#191F20"/>
<path d="M56.676 148.747C56.7067 148.892 56.7497 149.034 56.8044 149.172C56.9168 149.469 57.0613 149.87 57.2459 150.383C57.6553 151.474 58.2332 153.038 58.9797 155.043C59.7262 157.048 60.6492 159.534 61.6847 162.421L63.3462 167.032C63.9161 168.636 64.5181 170.417 65.1442 172.237C67.6966 179.52 70.522 188.277 73.5802 197.982C76.6383 207.686 79.7366 218.489 82.8349 229.837C85.9332 241.185 88.6061 252.085 90.9098 262.021C93.2134 271.958 95.0836 280.949 96.4722 288.535C96.8308 290.428 97.1706 292.23 97.4916 293.941C97.7886 295.649 98.0615 297.269 98.2943 298.753C98.816 301.768 99.2575 304.367 99.5625 306.508C99.8675 308.65 100.14 310.27 100.317 311.416C100.405 311.954 100.478 312.379 100.526 312.692C100.543 312.838 100.573 312.983 100.614 313.125C100.627 312.978 100.627 312.83 100.614 312.684C100.574 312.371 100.526 311.946 100.453 311.4C100.301 310.246 100.084 308.593 99.8033 306.476C99.5224 304.359 99.121 301.728 98.6314 298.705C98.3826 297.189 98.1257 295.569 97.8287 293.853C97.5318 292.136 97.1946 290.34 96.8495 288.439C95.501 280.836 93.6388 271.846 91.3994 261.885C89.1599 251.924 86.4148 241.033 83.3727 229.669C80.3306 218.304 77.1039 207.549 74.0698 197.805C71.0357 188.061 68.122 179.359 65.5214 172.085C64.8793 170.267 64.2666 168.538 63.6833 166.896L61.9817 162.293C60.9141 159.413 59.991 156.943 59.1884 154.938C58.3857 152.933 57.7837 151.401 57.3583 150.319L56.8687 149.124C56.813 148.994 56.7486 148.868 56.676 148.747Z" fill="#263238"/>
<path d="M135.731 189.873C135.639 189.941 135.556 190.019 135.482 190.106L134.792 190.828C134.19 191.469 133.323 192.432 132.239 193.683C129.152 197.243 126.32 201.017 123.763 204.975C119.956 210.847 116.984 217.22 114.934 223.91C112.526 231.441 111.081 240.014 109.62 248.965C106.69 266.889 103.102 282.945 100.502 294.558C99.1933 300.341 98.0936 305.024 97.3873 308.313C97.0341 309.917 96.7532 311.16 96.5846 312.05C96.4963 312.459 96.4321 312.78 96.3759 313.028C96.3488 313.139 96.3327 313.252 96.3278 313.365C96.3743 313.26 96.4092 313.149 96.4321 313.036C96.4963 312.796 96.5846 312.475 96.689 312.074C96.9137 311.192 97.2187 309.949 97.6201 308.361C98.4227 305.089 99.5224 300.413 100.903 294.647C103.6 283.058 107.252 267.002 110.182 249.053C111.651 240.103 113.103 231.561 115.439 224.055C117.469 217.399 120.396 211.05 124.14 205.183C126.658 201.221 129.433 197.427 132.448 193.827C133.507 192.544 134.35 191.566 134.928 190.9C135.193 190.587 135.41 190.338 135.57 190.138C135.631 190.054 135.685 189.966 135.731 189.873Z" fill="#263238"/>
<path d="M54.5329 263.056C54.6983 263.114 54.8715 263.146 55.0466 263.152L56.5396 263.313L57.6151 263.425L58.8834 263.609C59.7984 263.746 60.8419 263.882 61.9736 264.131L63.7636 264.492L65.6739 264.973C67.0063 265.27 68.3789 265.775 69.8478 266.2C72.9884 267.287 76.0352 268.628 78.9581 270.21C81.8602 271.832 84.5969 273.734 87.1292 275.888C88.2259 276.834 89.2708 277.838 90.2596 278.895C91.1429 279.799 91.9712 280.756 92.7398 281.759C93.3978 282.567 94.0114 283.41 94.5779 284.285C95.0378 284.936 95.4586 285.613 95.8381 286.314L96.6007 287.605C96.6803 287.762 96.7802 287.907 96.8976 288.038C96.8556 287.866 96.788 287.701 96.697 287.549L96.0227 286.21C95.6782 285.494 95.2811 284.805 94.8348 284.149C94.2907 283.249 93.6958 282.382 93.0529 281.55C92.2924 280.524 91.4723 279.544 90.5967 278.615C89.6084 277.534 88.5606 276.508 87.4583 275.543C84.9181 273.344 82.1585 271.412 79.2229 269.777C76.2718 268.179 73.189 266.838 70.0083 265.767C68.5234 265.334 67.1348 264.86 65.7863 264.58L63.8519 264.123L62.0459 263.802C60.898 263.569 59.8466 263.465 58.9235 263.353L57.6392 263.208L56.5556 263.152L55.0546 263.056C54.8815 263.033 54.7061 263.033 54.5329 263.056Z" fill="#263238"/>
<path d="M50.4313 190.21C50.736 190.578 51.0776 190.914 51.4507 191.213L54.4125 193.779C56.9329 195.928 60.4325 198.864 64.3174 202.088C68.2023 205.312 71.7501 208.207 74.3267 210.276L77.4009 212.682C77.7615 212.991 78.1544 213.26 78.5728 213.484C78.263 213.115 77.916 212.779 77.5373 212.482L74.5755 209.915C72.0551 207.766 68.5555 204.831 64.6706 201.607C60.7857 198.383 57.2459 195.495 54.6694 193.426L51.5951 191.02C51.2321 190.716 50.8426 190.445 50.4313 190.21Z" fill="#263238"/>
<path d="M46.8915 209.234C46.8915 209.378 54.4045 211.736 63.7475 214.503C73.0906 217.27 80.74 219.387 80.7801 219.243C80.8203 219.098 73.2672 216.732 63.9241 213.974C54.5811 211.215 46.9397 209.089 46.8915 209.234Z" fill="#263238"/>
<path d="M74.7922 201.663C75.0951 201.329 75.364 200.967 75.5949 200.58L77.5855 197.549C79.2711 194.99 81.6711 191.51 84.5125 187.796C87.354 184.083 90.083 180.859 92.0977 178.557C93.0449 177.467 93.8475 176.552 94.5057 175.83C94.8058 175.509 95.0746 175.16 95.3084 174.788C94.9403 175.041 94.6059 175.34 94.3131 175.678C93.7031 176.28 92.8362 177.17 91.7847 178.293C89.6978 180.538 86.9045 183.746 84.055 187.467C81.2055 191.189 78.8537 194.726 77.2404 197.332C76.4377 198.639 75.8036 199.738 75.3942 200.468C75.1471 200.841 74.9451 201.242 74.7922 201.663Z" fill="#263238"/>
<path d="M101.023 212.217C101.551 213.225 102.143 214.198 102.797 215.128C103.929 216.901 105.462 219.363 107.043 222.146C108.625 224.929 109.965 227.511 110.92 229.364C111.388 230.401 111.924 231.405 112.526 232.371C112.213 231.264 111.793 230.19 111.273 229.163C110.415 227.239 109.122 224.624 107.533 221.817C105.944 219.01 104.322 216.58 103.134 214.856C102.517 213.911 101.81 213.027 101.023 212.217Z" fill="#263238"/>
<path d="M110.045 245.115C110.085 245.187 111.522 244.482 113.882 243.423C116.242 242.364 119.501 241.017 123.257 239.67C127.014 238.322 130.425 237.4 132.929 236.766C135.434 236.133 136.999 235.772 136.943 235.692C136.564 235.683 136.187 235.723 135.819 235.812C135.097 235.916 134.069 236.109 132.801 236.381C129.491 237.105 126.229 238.032 123.032 239.156C119.837 240.271 116.711 241.578 113.673 243.07C112.51 243.648 111.586 244.137 110.952 244.506C110.627 244.672 110.322 244.877 110.045 245.115Z" fill="#263238"/>
<path d="M102.934 284.445C103.081 284.517 103.238 284.568 103.399 284.598L104.764 284.943L109.788 286.105C115.328 287.267 120.804 288.713 126.195 290.436C131.564 292.237 136.704 294.66 141.51 297.654C143.34 298.817 144.769 299.844 145.732 300.59C146.215 300.994 146.721 301.369 147.249 301.712C147.249 301.712 147.145 301.576 146.912 301.351C146.679 301.127 146.334 300.806 145.86 300.421C144.541 299.309 143.158 298.276 141.719 297.325C136.94 294.225 131.785 291.746 126.38 289.947C120.969 288.207 115.455 286.809 109.869 285.761L104.804 284.71C104.188 284.575 103.563 284.487 102.934 284.445Z" fill="#263238"/>
<path d="M77.3848 294.133C77.5293 294.133 78.4283 288.864 79.3915 282.312C80.3547 275.76 80.9968 270.426 80.8524 270.402C80.7079 270.378 79.8089 275.679 78.8457 282.232C77.8825 288.784 77.2323 294.117 77.3848 294.133Z" fill="#263238"/>
<path d="M50.7764 284.485C51.6406 283.59 52.445 282.639 53.1844 281.638C54.6212 279.85 56.6118 277.388 58.8673 274.709C61.1228 272.03 63.2017 269.64 64.7187 267.916C65.587 267.024 66.3917 266.073 67.1267 265.069C66.831 265.248 66.561 265.467 66.3241 265.718C65.8585 266.168 65.2084 266.825 64.4057 267.659C62.8004 269.319 60.6813 271.669 58.4178 274.356C56.1543 277.043 54.2118 279.545 52.8473 281.398C52.165 282.328 51.6273 283.09 51.242 283.619C51.046 283.884 50.8892 284.176 50.7764 284.485Z" fill="#263238"/>
<path d="M121.186 309.139V322.275H117.895L106.217 359.127H80.2986L68.9809 322.636L64.5984 322.275V309.139H121.186Z" fill="#455A64"/>
<path d="M66.7897 322.636C66.7897 322.789 78.2277 322.917 92.3386 322.917C106.449 322.917 117.895 322.789 117.895 322.636C117.895 322.484 106.457 322.364 92.3386 322.364C78.2196 322.364 66.7897 322.484 66.7897 322.636Z" fill="#263238"/>
<path d="M48.1517 238.146C48.6921 238.341 49.2479 238.492 49.8133 238.595L54.3563 239.694C58.1931 240.64 63.4586 242.1 69.1655 243.992C74.8725 245.885 79.9454 247.946 83.6136 249.51L87.8998 251.379C88.4169 251.637 88.9537 251.854 89.5051 252.028C89.0308 251.704 88.5284 251.422 88.0041 251.186C87.0249 250.673 85.5961 249.975 83.7821 249.149C74.3883 244.867 64.5754 241.569 54.5008 239.309C52.5744 238.884 51.0012 238.571 49.9096 238.386C49.3313 238.258 48.7433 238.177 48.1517 238.146Z" fill="#263238"/>
<path d="M75.3942 343.103C75.3942 343.256 83.4209 343.376 93.3178 343.376C103.215 343.376 111.249 343.256 111.249 343.103C111.249 342.951 103.223 342.831 93.3178 342.831C83.4129 342.831 75.3942 342.951 75.3942 343.103Z" fill="#FAFAFA"/>
<path d="M74.3829 340.048C74.3829 340.2 82.8911 340.321 93.382 340.321C103.873 340.321 112.389 340.2 112.389 340.048C112.389 339.895 103.881 339.775 93.382 339.775C82.8831 339.775 74.3829 339.903 74.3829 340.048Z" fill="#FAFAFA"/>
<path d="M486.616 258.06L433.103 197.99C430.995 195.625 428.415 193.728 425.528 192.421C422.641 191.114 419.512 190.427 416.343 190.403L240.166 189.128C237.172 189.106 234.204 189.676 231.433 190.807C228.661 191.938 226.142 193.607 224.02 195.717C221.898 197.826 220.215 200.336 219.07 203.099C217.924 205.862 217.338 208.825 217.346 211.816L217.643 336.463C217.649 339.439 218.243 342.385 219.39 345.132C220.537 347.878 222.215 350.372 224.328 352.47C226.441 354.568 228.947 356.228 231.704 357.357C234.46 358.486 237.412 359.06 240.39 359.048L415.958 358.31C419.2 358.302 422.403 357.598 425.35 356.246C428.297 354.895 430.919 352.926 433.038 350.474L486.873 287.918C490.462 283.757 492.414 278.434 492.367 272.941C492.319 267.448 490.276 262.159 486.616 258.06ZM456.837 279.714C455.446 283.135 453.071 286.067 450.011 288.139C446.952 290.211 443.347 291.33 439.651 291.355C435.955 291.38 432.335 290.309 429.248 288.278C426.162 286.247 423.747 283.347 422.31 279.944C420.873 276.542 420.478 272.791 421.175 269.164C421.872 265.537 423.63 262.199 426.226 259.57C428.822 256.942 432.14 255.142 435.76 254.398C439.38 253.653 443.14 253.998 446.563 255.389C451.146 257.254 454.801 260.859 456.727 265.413C458.653 269.967 458.693 275.098 456.837 279.682V279.714Z" fill="#191F20"/>
<g opacity="0.4">
<path d="M486.616 258.06L433.103 197.99C430.995 195.625 428.415 193.728 425.528 192.421C422.641 191.114 419.512 190.427 416.343 190.403L240.166 189.128C237.172 189.106 234.204 189.676 231.433 190.807C228.661 191.938 226.142 193.607 224.02 195.717C221.898 197.826 220.215 200.336 219.07 203.099C217.924 205.862 217.338 208.825 217.346 211.816L217.643 336.463C217.649 339.439 218.243 342.385 219.39 345.132C220.537 347.878 222.215 350.372 224.328 352.47C226.441 354.568 228.947 356.228 231.704 357.357C234.46 358.486 237.412 359.06 240.39 359.048L415.958 358.31C419.2 358.302 422.403 357.598 425.35 356.246C428.297 354.895 430.919 352.926 433.038 350.474L486.873 287.918C490.462 283.757 492.414 278.434 492.367 272.941C492.319 267.448 490.276 262.159 486.616 258.06ZM456.837 279.714C455.446 283.135 453.071 286.067 450.011 288.139C446.952 290.211 443.347 291.33 439.651 291.355C435.955 291.38 432.335 290.309 429.248 288.278C426.162 286.247 423.747 283.347 422.31 279.944C420.873 276.542 420.478 272.791 421.175 269.164C421.872 265.537 423.63 262.199 426.226 259.57C428.822 256.942 432.14 255.142 435.76 254.398C439.38 253.653 443.14 253.998 446.563 255.389C451.146 257.254 454.801 260.859 456.727 265.413C458.653 269.967 458.693 275.098 456.837 279.682V279.714Z" fill="black"/>
</g>
<path d="M495.887 258.06L442.349 197.99C440.241 195.626 437.661 193.729 434.774 192.422C431.887 191.115 428.759 190.427 425.59 190.403L249.412 189.128C246.419 189.104 243.45 189.674 240.678 190.805C237.906 191.935 235.386 193.604 233.264 195.714C231.142 197.824 229.459 200.334 228.314 203.098C227.169 205.861 226.584 208.825 226.593 211.816L226.881 336.463C226.889 339.446 227.486 342.398 228.638 345.149C229.791 347.9 231.476 350.397 233.598 352.496C235.719 354.594 238.234 356.254 240.999 357.378C243.764 358.502 246.724 359.07 249.709 359.047L425.269 358.31C428.511 358.301 431.714 357.596 434.66 356.245C437.607 354.893 440.229 352.925 442.349 350.474L496.176 287.918C499.762 283.753 501.709 278.428 501.656 272.934C501.603 267.441 499.553 262.154 495.887 258.06ZM466.116 279.714C464.725 283.135 462.349 286.067 459.29 288.139C456.231 290.211 452.626 291.33 448.93 291.355C445.234 291.38 441.614 290.309 438.527 288.278C435.441 286.247 433.026 283.346 431.589 279.944C430.152 276.542 429.757 272.79 430.454 269.164C431.151 265.537 432.909 262.199 435.505 259.57C438.101 256.942 441.419 255.142 445.039 254.397C448.659 253.653 452.418 253.998 455.842 255.389C460.425 257.254 464.08 260.859 466.006 265.413C467.932 269.967 467.972 275.098 466.116 279.681V279.714Z" fill="#191F20"/>
<path d="M285.219 253.881C285.356 238.772 294.675 229.252 307.742 229.38C320.81 229.509 329.823 239.06 329.687 254.29C329.551 269.52 320.344 278.92 307.285 278.799C294.225 278.679 285.075 268.991 285.219 253.881ZM316.868 254.178C316.957 244.554 313.289 239.926 307.646 239.878C302.139 239.822 298.247 244.522 298.158 254.002C298.07 263.481 301.875 268.245 307.381 268.301C313.024 268.349 316.78 263.778 316.868 254.178ZM361.168 230.92L376.418 231.064L314.332 320.086L299.081 319.942L361.168 230.92ZM345.821 296.74C345.965 281.63 355.276 272.111 368.223 272.231C381.29 272.359 390.425 282.048 390.288 297.149C390.152 312.251 380.833 321.738 367.758 321.602C354.859 321.498 345.684 311.81 345.821 296.74ZM377.341 297.029C377.43 287.557 373.761 282.785 368.119 282.737C362.612 282.681 358.727 287.252 358.639 296.86C358.551 306.468 362.348 311.104 367.854 311.16C373.497 311.176 377.253 306.468 377.333 296.989L377.341 297.029Z" fill="white"/>
<path d="M490.028 295.136C490.667 295.476 491.258 295.9 491.786 296.395C492.885 297.269 494.491 298.585 496.521 300.325C498.552 302.065 501.024 304.215 503.801 306.805C506.579 309.396 509.693 312.419 512.912 316.004C516.45 319.889 519.653 324.067 522.488 328.491L523.627 330.312L524.703 332.212C525.454 333.512 526.135 334.85 526.742 336.222C528.092 339.133 528.871 342.274 529.037 345.478C529.089 347.189 528.839 348.897 528.299 350.522C527.735 352.202 526.834 353.75 525.65 355.069C523.222 357.745 520.007 359.581 516.468 360.315C512.878 361.024 509.176 360.936 505.624 360.058C502.055 359.196 498.6 357.923 495.325 356.264C488.89 352.986 483.054 348.648 478.06 343.432C475.679 340.989 473.452 338.402 471.39 335.685C469.378 333.049 467.462 330.427 465.643 327.817C458.419 317.391 452.8 307.367 449.268 298.4C448.385 296.163 447.623 294.013 446.965 291.944C446.644 290.909 446.339 289.899 446.09 288.896C445.816 287.927 445.62 286.938 445.504 285.937C445.224 284.039 445.7 282.108 446.828 280.556C447.8 279.31 449.126 278.388 450.633 277.909C451.255 277.704 451.894 277.556 452.543 277.468C453.114 277.407 453.688 277.394 454.261 277.428C455.159 277.471 456.043 277.663 456.878 277.997C457.385 278.209 457.856 278.499 458.274 278.855C458.547 279.104 458.668 279.24 458.643 279.272C458.619 279.305 458.451 279.216 458.146 279.032C457.703 278.762 457.229 278.549 456.733 278.398C455.927 278.155 455.087 278.036 454.245 278.045C453.707 278.051 453.171 278.094 452.639 278.174C452.046 278.289 451.463 278.455 450.898 278.671C449.586 279.153 448.446 280.012 447.623 281.141C446.705 282.506 446.359 284.176 446.66 285.793C446.792 286.736 447.002 287.667 447.286 288.576C447.551 289.538 447.88 290.516 448.217 291.527C448.918 293.548 449.72 295.655 450.625 297.847C454.261 306.589 459.944 316.461 467.2 326.719C469.019 329.285 470.938 331.87 472.955 334.474C474.985 337.118 477.175 339.636 479.513 342.013C484.362 347.048 490.015 351.243 496.24 354.428C499.381 356.015 502.694 357.237 506.113 358.069C509.371 358.885 512.768 358.98 516.066 358.35C519.186 357.714 522.028 356.115 524.189 353.778C526.193 351.515 527.25 348.569 527.143 345.55C526.991 342.578 526.271 339.662 525.024 336.96C524.454 335.633 523.814 334.337 523.106 333.079L522.102 331.226L521.011 329.413C518.281 325.028 515.197 320.873 511.788 316.99C508.69 313.398 505.68 310.318 502.959 307.655C500.238 304.993 497.886 302.763 495.935 300.942L491.505 296.74C490.948 296.268 490.452 295.73 490.028 295.136Z" fill="#263238"/>
<path d="M406.414 170.658C406.302 170.658 404.054 154.979 401.389 135.602C398.724 116.226 396.662 100.507 396.782 100.491C396.902 100.475 399.142 116.17 401.807 135.546C404.471 154.922 406.534 170.642 406.414 170.658Z" fill="#263238"/>
<path d="M472.594 84.8196C472.58 84.9025 472.556 84.9833 472.522 85.0602L472.265 85.7579L471.245 88.4286L467.425 98.229C464.214 106.506 459.815 117.958 455.144 130.686C450.472 143.414 446.419 154.987 443.529 163.383C442.092 167.562 440.929 170.954 440.118 173.336C439.717 174.483 439.404 175.389 439.179 176.039C439.074 176.328 438.986 176.552 438.922 176.737C438.898 176.818 438.866 176.895 438.826 176.969C438.832 176.884 438.851 176.8 438.882 176.721L439.099 176.007C439.299 175.357 439.588 174.403 439.957 173.28C440.712 170.914 441.836 167.498 443.248 163.287C446.074 154.866 450.087 143.237 454.759 130.542C459.43 117.846 463.853 106.369 467.144 98.1167C468.749 93.9945 470.146 90.6581 471.101 88.3644L472.2 85.7258C472.321 85.4451 472.425 85.2206 472.497 85.0441L472.594 84.8196Z" fill="#263238"/>
<path d="M520.015 146.542C520.088 146.63 508.601 155.62 494.33 166.592C480.059 177.563 468.484 186.433 468.412 186.337C468.34 186.241 479.834 177.258 494.097 166.287C508.361 155.315 519.951 146.445 520.015 146.542Z" fill="#263238"/>
<path d="M378.553 173.585C378.457 173.657 374.018 167.971 368.632 160.945C363.247 153.92 358.944 148.113 359 148.057C359.057 148.001 363.535 153.671 368.921 160.697C374.307 167.722 378.642 173.513 378.553 173.585Z" fill="#263238"/>
<path d="M514.589 217.791C514.589 217.904 507.518 215.947 498.865 213.428C490.212 210.91 483.229 208.777 483.261 208.665C483.293 208.552 490.333 210.509 498.985 213.027C507.638 215.546 514.629 217.679 514.589 217.791Z" fill="#263238"/>
<path d="M413.445 217.535L418.663 214.535L421.432 209.194L424.442 214.407L429.788 217.182L424.57 220.181L421.793 225.523L418.791 220.31L413.445 217.535Z" fill="white"/>
<path d="M385.24 209.258L387.07 208.207L388.041 206.339L389.092 208.159L390.963 209.13L389.133 210.18L388.161 212.049L387.11 210.228L385.24 209.258Z" fill="white"/>
<path d="M403.251 246.094L406.783 244.065L408.661 240.448L410.692 243.977L414.312 245.853L410.78 247.882L408.902 251.499L406.871 247.971L403.251 246.094Z" fill="white"/>
<path d="M159.578 344.908C159.578 344.908 126.099 354.179 124.71 354.652C122.695 355.358 123.032 362.753 126.179 362.672C127.664 362.616 151.92 363.571 154.987 363.378C158.053 363.186 166.304 359.938 166.304 359.938L159.578 344.908Z" fill="#455A64"/>
<path d="M145.611 357.692C145.443 357.692 145.218 355.944 144.135 354.099C143.051 352.255 141.662 351.148 141.767 351.019C141.871 350.891 143.492 351.821 144.624 353.818C145.756 355.815 145.756 357.692 145.611 357.692Z" fill="#263238"/>
<path d="M149.111 356.088C148.943 356.088 148.605 354.532 147.714 352.784C146.824 351.035 145.764 349.808 145.884 349.696C146.005 349.584 147.289 350.683 148.212 352.535C149.135 354.388 149.256 356.088 149.111 356.088Z" fill="#263238"/>
<path d="M152.386 355.23C152.217 355.23 152.346 353.546 151.583 351.685C150.821 349.825 149.633 348.678 149.753 348.557C149.874 348.437 151.359 349.464 152.105 351.485C152.852 353.506 152.522 355.286 152.386 355.23Z" fill="#263238"/>
<path d="M151.784 350.899C151.491 350.105 151.368 349.258 151.423 348.413C151.437 347.485 151.558 346.562 151.784 345.662C151.909 345.131 152.076 344.611 152.282 344.106C152.386 343.796 152.572 343.519 152.819 343.304C152.987 343.177 153.194 343.112 153.404 343.123C153.614 343.133 153.813 343.217 153.967 343.36C154.225 343.612 154.385 343.948 154.417 344.307C154.436 344.6 154.436 344.895 154.417 345.189C154.408 345.73 154.338 346.268 154.208 346.793C153.985 347.689 153.639 348.55 153.181 349.351C152.807 350.11 152.296 350.793 151.672 351.364C151.599 351.316 152.161 350.562 152.827 349.167C153.219 348.377 153.513 347.542 153.702 346.681C153.812 346.177 153.869 345.664 153.871 345.149C153.871 344.635 153.871 343.994 153.558 343.745C153.504 343.683 153.427 343.644 153.345 343.637C153.263 343.629 153.181 343.654 153.116 343.705C152.946 343.866 152.819 344.067 152.747 344.291C152.545 344.771 152.376 345.264 152.242 345.766C152.006 346.621 151.858 347.497 151.8 348.381C151.728 349.937 151.88 350.891 151.784 350.899Z" fill="#263238"/>
<path d="M151.832 350.562C152.517 350.276 153.259 350.155 153.999 350.209C154.811 350.207 155.62 350.307 156.407 350.506C156.887 350.606 157.35 350.776 157.78 351.011C158.055 351.148 158.278 351.371 158.414 351.646C158.551 351.921 158.593 352.234 158.534 352.535C158.458 352.824 158.305 353.088 158.091 353.298C157.878 353.508 157.613 353.657 157.322 353.73C156.83 353.855 156.314 353.855 155.821 353.73C154.326 353.291 153.016 352.376 152.089 351.124C152.711 351.484 153.307 351.889 153.871 352.335C154.493 352.758 155.191 353.06 155.926 353.225C156.334 353.325 156.761 353.325 157.17 353.225C157.362 353.172 157.537 353.071 157.677 352.93C157.818 352.789 157.92 352.615 157.973 352.423C158.005 352.235 157.974 352.041 157.884 351.872C157.794 351.704 157.65 351.57 157.475 351.492C157.091 351.281 156.681 351.122 156.255 351.019C155.519 350.81 154.763 350.678 153.999 350.626C152.667 350.514 151.848 350.65 151.832 350.562Z" fill="#263238"/>
<path d="M140.466 358.045C140.298 358.045 140.466 356.593 139.8 355.029C139.134 353.465 138.058 352.535 138.195 352.407C138.331 352.278 139.648 353.064 140.354 354.813C141.06 356.561 140.603 358.109 140.466 358.045Z" fill="#263238"/>
<path d="M131.22 361.806C131.359 361.375 131.522 360.952 131.709 360.539C132.061 359.529 132.144 358.445 131.95 357.393C131.756 356.341 131.291 355.358 130.602 354.54C130.072 353.898 129.646 353.594 129.687 353.53C129.727 353.465 130.216 353.706 130.834 354.332C131.645 355.147 132.191 356.188 132.4 357.319C132.609 358.449 132.472 359.616 132.006 360.667C131.645 361.453 131.26 361.838 131.22 361.806Z" fill="#263238"/>
<path d="M194.55 345.903C194.55 345.903 228.936 351.124 230.325 351.436C232.42 351.902 232.958 359.28 229.827 359.537C228.342 359.657 204.367 363.49 201.3 363.667C198.234 363.843 188.618 361.325 188.618 361.325L194.55 345.903Z" fill="#455A64"/>
<path d="M209.937 356.93C210.106 356.93 210.122 355.15 210.973 353.185C211.823 351.22 213.084 349.977 212.963 349.84C212.843 349.704 211.358 350.859 210.459 352.968C209.56 355.077 209.801 356.962 209.937 356.93Z" fill="#263238"/>
<path d="M206.277 355.775C206.446 355.775 206.59 354.171 207.272 352.327C207.955 350.482 208.878 349.119 208.717 349.047C208.557 348.974 207.441 350.185 206.743 352.134C206.044 354.083 206.133 355.783 206.277 355.775Z" fill="#263238"/>
<path d="M202.922 355.286C203.082 355.286 202.761 353.61 203.275 351.677C203.789 349.744 204.88 348.469 204.72 348.349C204.559 348.228 203.267 349.439 202.737 351.557C202.207 353.674 202.793 355.358 202.922 355.286Z" fill="#263238"/>
<path d="M202.994 350.923C203.199 350.101 203.221 349.244 203.058 348.413C202.943 347.499 202.72 346.603 202.392 345.742C202.202 345.229 201.974 344.73 201.71 344.251C201.572 343.95 201.356 343.693 201.084 343.505C200.901 343.398 200.687 343.358 200.479 343.394C200.27 343.429 200.081 343.536 199.944 343.697C199.718 343.978 199.601 344.331 199.615 344.692C199.616 344.987 199.637 345.282 199.679 345.574C199.751 346.122 199.886 346.66 200.08 347.178C200.41 348.037 200.855 348.846 201.405 349.584C201.866 350.294 202.454 350.914 203.139 351.412C203.211 351.348 202.561 350.61 201.734 349.367C201.248 348.616 200.854 347.808 200.562 346.961C200.397 346.475 200.284 345.972 200.225 345.462C200.177 344.948 200.096 344.315 200.361 344.034C200.409 343.967 200.48 343.92 200.56 343.903C200.641 343.887 200.725 343.902 200.795 343.946C200.985 344.085 201.137 344.27 201.236 344.483C201.493 344.935 201.719 345.404 201.911 345.887C202.245 346.707 202.497 347.559 202.665 348.429C202.938 349.969 202.906 350.923 202.994 350.923Z" fill="#263238"/>
<path d="M202.914 350.594C202.211 350.386 201.469 350.344 200.747 350.474C199.951 350.57 199.169 350.761 198.419 351.043C197.957 351.204 197.519 351.428 197.119 351.709C196.862 351.878 196.667 352.126 196.565 352.416C196.462 352.705 196.456 353.02 196.549 353.313C196.661 353.592 196.844 353.835 197.081 354.02C197.318 354.205 197.6 354.323 197.897 354.364C198.402 354.424 198.915 354.361 199.39 354.179C200.819 353.561 202.01 352.498 202.785 351.148C202.218 351.58 201.681 352.052 201.18 352.559C200.613 353.056 199.957 353.44 199.246 353.69C198.849 353.828 198.426 353.872 198.01 353.818C197.812 353.791 197.625 353.713 197.466 353.592C197.307 353.471 197.182 353.312 197.103 353.129C197.049 352.944 197.058 352.746 197.128 352.567C197.197 352.387 197.324 352.235 197.488 352.134C197.844 351.884 198.229 351.679 198.636 351.525C199.343 351.227 200.08 351.007 200.835 350.867C202.079 350.65 202.914 350.683 202.914 350.594Z" fill="#263238"/>
<path d="M215.09 356.674C215.259 356.633 214.922 355.238 215.387 353.594C215.853 351.95 216.832 350.915 216.712 350.803C216.591 350.691 215.339 351.605 214.85 353.45C214.36 355.294 214.97 356.754 215.09 356.674Z" fill="#263238"/>
<path d="M301.489 204.743C301.278 204.309 300.924 203.961 300.486 203.756L301.289 202.152C301.234 201.577 301.073 201.017 300.815 200.5C300.414 199.81 299.009 199.866 299.009 199.866L299.226 199.409C299.373 199.086 299.433 198.73 299.402 198.376C299.371 198.022 299.25 197.682 299.049 197.388C298.985 197.3 298.921 197.212 298.841 197.116C298.354 196.644 297.735 196.33 297.067 196.217C297.067 196.217 297.869 194.678 297.508 194.028C297.133 193.494 296.608 193.081 296.001 192.842C295.393 192.602 294.728 192.546 294.089 192.681C291.947 193.521 289.869 194.513 287.868 195.648C287.681 195.749 287.475 195.809 287.263 195.823C287.05 195.837 286.838 195.805 286.639 195.728C286.441 195.652 286.261 195.534 286.113 195.381C285.965 195.229 285.852 195.046 285.781 194.846C285.067 192.798 284.041 190.872 282.739 189.136C281.23 187.323 279.817 187.468 278.991 187.788C278.898 187.824 278.814 187.88 278.746 187.952C278.677 188.024 278.625 188.109 278.593 188.203C278.56 188.297 278.549 188.397 278.56 188.496C278.57 188.595 278.602 188.69 278.653 188.775C279.464 190.065 280.193 191.404 280.837 192.785C281.23 193.835 281.639 201.743 281.639 201.743L279.472 205.865L257.616 240.359C257.616 240.359 224.586 218.12 224.706 217.567L223.149 243.07L248.032 259.591C250.163 261.006 252.579 261.936 255.109 262.319C257.639 262.701 260.222 262.525 262.676 261.803C265.131 261.082 267.398 259.832 269.318 258.142C271.237 256.452 272.764 254.363 273.789 252.021L290.541 215.69L292.572 212.723L300.462 207.67C300.462 207.67 301.77 205.408 301.489 204.743Z" fill="#FFBE9D"/>
<path d="M297.869 196.225C297.869 196.225 297.821 196.282 297.717 196.37L297.243 196.755C296.802 197.092 296.2 197.557 295.477 198.126L292.837 200.131C292.339 200.5 291.841 200.933 291.231 201.286C290.929 201.495 290.582 201.63 290.218 201.679C289.853 201.727 289.483 201.689 289.136 201.567C288.78 201.406 288.495 201.121 288.334 200.765C288.191 200.434 288.127 200.074 288.149 199.714C288.209 199.043 288.492 198.411 288.952 197.918C289.358 197.482 289.798 197.08 290.268 196.715L291.456 195.728L293.19 194.309L293.663 193.932C293.776 193.852 293.832 193.803 293.84 193.811L293.687 193.964L293.238 194.373L291.552 195.832L290.38 196.835C289.921 197.202 289.492 197.604 289.096 198.038C288.645 198.492 288.362 199.086 288.294 199.722C288.252 200.051 288.31 200.385 288.46 200.681C288.61 200.977 288.846 201.221 289.136 201.382C289.449 201.51 289.792 201.544 290.124 201.479C290.453 201.415 290.768 201.293 291.055 201.118C291.617 200.773 292.13 200.316 292.66 199.987L295.317 198.006L297.123 196.691L297.621 196.338L297.869 196.225Z" fill="#EB996E"/>
<path d="M299.619 199.939C299.508 200.054 299.384 200.156 299.25 200.243C299.009 200.428 298.648 200.693 298.198 201.005C297.307 201.623 296.047 202.457 294.611 203.299C294.249 203.508 293.904 203.724 293.535 203.893C293.177 204.061 292.782 204.136 292.387 204.109C292.052 204.069 291.736 203.936 291.473 203.724C291.21 203.513 291.013 203.232 290.902 202.914C290.767 202.485 290.802 202.02 290.999 201.615C291.055 201.509 291.122 201.41 291.199 201.318C291.255 201.254 291.287 201.23 291.295 201.23C291.304 201.23 291.191 201.374 291.071 201.647C290.925 202.04 290.925 202.473 291.071 202.866C291.174 203.154 291.357 203.407 291.598 203.594C291.84 203.782 292.13 203.897 292.435 203.925C292.798 203.941 293.16 203.867 293.487 203.708C293.847 203.534 294.198 203.341 294.538 203.131C295.975 202.289 297.243 201.479 298.158 200.885L299.234 200.179C299.356 200.089 299.484 200.008 299.619 199.939Z" fill="#EB996E"/>
<path d="M300.639 203.564C300.521 203.649 300.394 203.722 300.261 203.78L299.194 204.318C298.287 204.767 297.027 205.368 295.638 206.026C295.299 206.196 294.951 206.346 294.594 206.475C294.248 206.603 293.873 206.634 293.511 206.563C293.343 206.532 293.184 206.464 293.045 206.364C292.906 206.264 292.791 206.135 292.708 205.986C292.574 205.724 292.529 205.425 292.58 205.136C292.668 204.729 292.891 204.364 293.214 204.101C293.431 203.917 293.575 203.844 293.583 203.86C293.591 203.876 293.463 203.965 293.262 204.157C292.983 204.428 292.795 204.778 292.724 205.16C292.684 205.416 292.73 205.678 292.853 205.906C292.928 206.031 293.029 206.139 293.149 206.222C293.27 206.305 293.407 206.361 293.551 206.387C293.88 206.445 294.219 206.412 294.53 206.291C294.879 206.162 295.219 206.012 295.55 205.841C296.946 205.192 298.206 204.606 299.13 204.189L300.229 203.716C300.357 203.645 300.495 203.594 300.639 203.564Z" fill="#EB996E"/>
<path d="M301.208 206.916C300.8 207.058 300.382 207.168 299.956 207.245C299.154 207.421 298.094 207.654 296.898 207.894L296.023 208.071C295.747 208.139 295.464 208.171 295.18 208.167C294.909 208.167 294.645 208.073 294.434 207.903C294.341 207.825 294.267 207.728 294.217 207.619C294.167 207.509 294.142 207.389 294.145 207.269C294.159 207.102 294.209 206.94 294.292 206.795C294.376 206.649 294.49 206.524 294.627 206.427C294.717 206.348 294.829 206.298 294.948 206.282C294.948 206.282 294.835 206.347 294.675 206.491C294.558 206.59 294.463 206.713 294.397 206.851C294.33 206.989 294.294 207.14 294.289 207.293C294.29 207.391 294.312 207.487 294.355 207.574C294.399 207.662 294.461 207.738 294.538 207.798C294.723 207.938 294.949 208.012 295.18 208.007C295.451 208.002 295.72 207.967 295.983 207.903L296.858 207.718C298.054 207.477 299.138 207.269 299.924 207.125C300.347 207.025 300.776 206.955 301.208 206.916Z" fill="#EB996E"/>
<path d="M292.644 205.312C291.904 205.164 291.151 205.089 290.396 205.088C289.647 205.157 288.908 205.305 288.189 205.529C288.847 205.111 289.609 204.889 290.388 204.887C291.165 204.818 291.946 204.965 292.644 205.312Z" fill="#EB996E"/>
<path d="M174.708 197.757C174.708 197.757 163.599 188.398 166.168 181.95C168.736 175.502 175.872 172.326 179.38 160.576C182.181 151.209 198.868 133.132 218.646 146.766C218.646 146.766 225.34 145.715 229.145 148.763C232.95 151.811 233.873 157.89 235.486 164.907C237.974 175.726 239.339 184.043 234.523 189.336C229.707 194.629 227.941 196.049 228.198 202.064C228.535 209.916 232.002 208.865 229.001 214.591L212.417 209.186L212.241 204.622L210.563 208.913L200.931 205.448L174.708 197.757Z" fill="#263238"/>
<path d="M229.94 158.283C228.864 160.753 229.747 163.608 230.742 166.11C231.738 168.612 232.95 171.251 232.436 173.898C231.521 178.589 225.686 181.204 225.043 185.928C224.698 188.462 225.966 191.044 225.477 193.563C224.987 196.081 222.964 197.829 220.805 199.048C218.646 200.267 216.262 201.085 214.231 202.513C214.231 202.513 209.769 206.17 202.079 200.147" fill="#263238"/>
<path d="M198.435 152.147C197.437 151.917 196.389 152.068 195.498 152.571C194.606 153.074 193.936 153.893 193.619 154.866L177.686 207.718C175.623 213.901 183.409 220.502 190.047 222.651C196.757 224.825 198.114 221.641 200.241 215.818C203.805 206.098 205.057 202.425 205.057 202.481C205.057 202.537 213.95 204.005 219.505 193.659C222.266 188.502 225.124 179.464 227.186 172.005C229.065 165.284 227.508 155.692 220.709 154.112L198.435 152.147Z" fill="#FFBE9D"/>
<path d="M221.568 177.523C221.445 177.892 221.181 178.198 220.835 178.375C220.488 178.552 220.085 178.586 219.714 178.469C219.53 178.421 219.357 178.337 219.206 178.221C219.056 178.105 218.929 177.961 218.835 177.795C218.741 177.63 218.681 177.448 218.658 177.259C218.635 177.071 218.65 176.88 218.702 176.697C218.827 176.329 219.091 176.024 219.437 175.847C219.783 175.671 220.185 175.636 220.556 175.75C220.74 175.799 220.913 175.883 221.064 175.999C221.215 176.114 221.341 176.259 221.435 176.424C221.529 176.589 221.59 176.771 221.612 176.96C221.635 177.149 221.62 177.34 221.568 177.523Z" fill="#263238"/>
<path d="M223.767 175.638C223.534 175.758 222.74 174.604 221.223 174.082C219.706 173.561 218.333 173.93 218.237 173.689C218.181 173.577 218.478 173.304 219.039 173.12C219.853 172.895 220.716 172.926 221.512 173.208C222.301 173.482 222.984 173.999 223.462 174.684C223.839 175.165 223.887 175.558 223.767 175.638Z" fill="#263238"/>
<path d="M206.542 172.727C206.419 173.094 206.157 173.4 205.812 173.578C205.468 173.756 205.067 173.793 204.696 173.681C204.512 173.633 204.339 173.549 204.188 173.433C204.038 173.317 203.911 173.173 203.817 173.008C203.723 172.842 203.663 172.66 203.64 172.472C203.617 172.283 203.632 172.092 203.684 171.909C203.808 171.541 204.069 171.236 204.414 171.058C204.759 170.88 205.159 170.843 205.531 170.954C205.715 171.003 205.887 171.087 206.038 171.203C206.189 171.319 206.315 171.463 206.409 171.628C206.503 171.793 206.564 171.976 206.586 172.164C206.609 172.353 206.594 172.544 206.542 172.727Z" fill="#263238"/>
<path d="M208.661 171.075C208.42 171.203 207.625 170.04 206.108 169.519C204.591 168.997 203.219 169.366 203.123 169.126C203.066 169.013 203.363 168.749 203.965 168.564C204.778 168.336 205.643 168.366 206.438 168.653C207.228 168.921 207.911 169.435 208.388 170.12C208.725 170.634 208.773 171.026 208.661 171.075Z" fill="#263238"/>
<path d="M210.25 184.212C211.136 184.236 212.016 184.374 212.867 184.621C213.268 184.717 213.67 184.765 213.814 184.524C213.983 184.136 214.03 183.705 213.951 183.289C213.951 182.231 213.878 181.116 213.838 179.953C213.702 175.205 213.75 171.364 213.943 171.355C214.135 171.347 214.4 175.197 214.528 179.937C214.528 181.1 214.569 182.215 214.593 183.281C214.68 183.838 214.563 184.408 214.264 184.885C214.164 184.999 214.041 185.09 213.902 185.15C213.763 185.209 213.612 185.237 213.461 185.23C213.228 185.216 212.999 185.17 212.779 185.094C211.902 184.909 211.052 184.612 210.25 184.212Z" fill="#263238"/>
<path d="M205.065 202.481C199.869 200.768 195.253 197.644 191.733 193.458C191.733 193.458 192.816 202.281 204.158 205.079L205.065 202.481Z" fill="#EB996E"/>
<path d="M208.34 187.668C208.179 187.205 207.903 186.79 207.536 186.464C207.169 186.138 206.724 185.912 206.245 185.807C205.901 185.721 205.543 185.705 205.193 185.76C204.842 185.815 204.507 185.94 204.206 186.128C203.914 186.308 203.685 186.575 203.551 186.891C203.417 187.207 203.385 187.557 203.46 187.893C203.607 188.248 203.858 188.551 204.18 188.763C204.502 188.975 204.88 189.085 205.266 189.08C206.069 189.079 206.863 188.915 207.601 188.598C207.816 188.537 208.018 188.436 208.195 188.302C208.278 188.237 208.341 188.149 208.375 188.049C208.409 187.95 208.414 187.842 208.388 187.74" fill="#EB996E"/>
<path d="M209.785 166.744C209.552 167.145 208.019 166.639 206.125 166.511C204.23 166.383 202.649 166.599 202.472 166.174C202.4 165.966 202.737 165.613 203.42 165.316C204.316 164.948 205.288 164.803 206.253 164.891C207.221 164.955 208.159 165.249 208.99 165.749C209.616 166.15 209.897 166.551 209.785 166.744Z" fill="#263238"/>
<path d="M225.95 170.585C225.533 170.842 224.345 170.12 222.828 169.671C221.311 169.222 219.93 169.11 219.73 168.661C219.649 168.444 219.954 168.147 220.613 167.979C221.512 167.801 222.441 167.85 223.317 168.12C224.192 168.39 224.987 168.874 225.629 169.527C226.071 170.024 226.143 170.449 225.95 170.585Z" fill="#263238"/>
<path d="M179.877 186.866C182.863 176.873 185.852 166.875 188.843 156.871C189.453 154.818 190.159 152.629 191.869 151.337C193.579 150.046 195.65 149.974 197.672 149.934C206.413 149.752 215.143 150.614 223.679 152.5C224.08 154.529 222.322 156.462 220.348 157.128C218.373 157.793 216.238 157.553 214.167 157.577C212.096 157.601 209.825 157.97 208.42 159.502C207.015 161.034 206.775 163.64 205.362 165.34C202.954 168.26 197.841 167.642 195.425 170.577C193.603 172.799 194.093 176.047 193.491 178.854C192.808 182.062 192.808 182.062 190.28 186.73C188.747 189.601 192.6 195.086 188.763 202.2L181.314 200.083L184.581 189.096L180.15 199.401L179.877 186.866Z" fill="#263238"/>
<path d="M205.755 184.027C205.908 184.115 205.828 184.516 205.819 185.094C205.771 185.808 205.921 186.522 206.254 187.157C206.587 187.791 207.09 188.321 207.706 188.687C208.179 189.007 208.557 189.168 208.508 189.344C208.46 189.521 208.051 189.673 207.337 189.505C206.864 189.379 206.423 189.157 206.041 188.852C205.659 188.547 205.345 188.166 205.118 187.733C204.892 187.3 204.758 186.824 204.725 186.337C204.693 185.849 204.762 185.361 204.929 184.901C205.225 184.212 205.619 183.939 205.755 184.027Z" fill="#263238"/>
<path d="M203.54 159.919C203.413 160.017 203.273 160.095 203.123 160.152C202.717 160.349 202.324 160.568 201.943 160.809C200.198 161.891 198.708 163.335 197.574 165.045C196.439 166.754 195.687 168.688 195.369 170.714C195.177 172.143 195.177 173.591 195.369 175.021C195.606 176.581 195.7 178.159 195.65 179.736C195.598 180.559 195.428 181.369 195.144 182.142C194.843 182.867 194.486 183.567 194.077 184.236C193.25 185.413 192.676 186.748 192.391 188.157C192.235 189.449 192.27 190.757 192.495 192.039C192.664 193.266 192.881 194.445 192.961 195.464C193.186 197.146 192.933 198.858 192.23 200.404C192.014 200.809 191.744 201.184 191.428 201.519C191.195 201.735 191.066 201.839 191.058 201.823C191.459 201.371 191.802 200.87 192.078 200.332C192.696 198.808 192.898 197.147 192.664 195.52C192.559 194.477 192.327 193.346 192.142 192.119C191.896 190.797 191.85 189.445 192.006 188.109C192.319 185.158 195.168 182.992 195.216 179.752C195.266 178.2 195.178 176.646 194.951 175.109C194.751 173.645 194.751 172.161 194.951 170.698C195.347 168.217 196.397 165.886 197.994 163.945C199.057 162.645 200.356 161.557 201.822 160.737C202.216 160.51 202.626 160.314 203.05 160.152C203.2 160.048 203.365 159.97 203.54 159.919Z" fill="#263238"/>
<path d="M239.515 205.015L239.379 205.128C239.283 205.192 239.146 205.304 238.954 205.416C238.386 205.75 237.772 205.999 237.132 206.154C236.11 206.408 235.046 206.446 234.009 206.267C232.619 206.046 231.331 205.405 230.317 204.43C229.094 203.235 228.315 201.659 228.11 199.963C227.976 199.022 228.039 198.063 228.294 197.148C228.575 196.186 229.02 195.279 229.611 194.469C230.953 192.833 232.438 191.319 234.049 189.946C234.856 189.198 235.587 188.374 236.233 187.484C236.87 186.553 237.375 185.538 237.734 184.468C238.391 182.327 238.676 180.089 238.576 177.852C238.497 175.757 238.28 173.67 237.926 171.604C237.353 168.1 236.461 164.656 235.261 161.314C234.453 159.057 233.515 156.847 232.452 154.698C232.075 153.936 231.77 153.351 231.561 152.958C231.44 152.775 231.335 152.582 231.248 152.38C231.387 152.562 231.51 152.755 231.617 152.958C231.85 153.335 232.179 153.912 232.58 154.666C233.708 156.793 234.692 158.992 235.526 161.25C236.776 164.598 237.706 168.057 238.303 171.58C238.673 173.663 238.901 175.77 238.986 177.884C239.094 180.167 238.803 182.452 238.127 184.637C237.763 185.745 237.241 186.796 236.578 187.756C235.912 188.669 235.159 189.515 234.33 190.283C232.734 191.635 231.26 193.125 229.924 194.734C229.354 195.504 228.922 196.367 228.647 197.284C228.402 198.155 228.334 199.065 228.447 199.963C228.638 201.588 229.37 203.102 230.526 204.262C231.492 205.206 232.719 205.84 234.049 206.082C235.056 206.275 236.091 206.258 237.091 206.034C237.947 205.82 238.764 205.477 239.515 205.015Z" fill="#263238"/>
<path d="M171.233 194.14C172.172 193.897 173.05 193.46 173.809 192.857C175.8 191.091 177.026 188.62 177.229 185.968C177.401 184.147 177.45 182.317 177.373 180.49C177.257 178.366 177.421 176.236 177.863 174.154C178.133 173.028 178.569 171.947 179.155 170.946C179.779 169.889 180.649 168.997 181.691 168.348C183.867 167.017 186.507 167.081 188.915 166.255C190.089 165.844 191.144 165.153 191.99 164.242C192.803 163.337 193.529 162.357 194.157 161.314C195.441 159.293 196.677 157.168 198.636 155.909C199.576 155.311 200.637 154.925 201.742 154.778C202.766 154.641 203.8 154.598 204.832 154.65C206.658 154.792 208.492 154.776 210.314 154.602C212.944 154.241 215.446 153.245 217.603 151.698C218.183 151.274 218.74 150.819 219.272 150.335L219.682 149.95L219.834 149.822C219.213 150.58 218.495 151.254 217.699 151.827C215.545 153.445 213.02 154.501 210.355 154.898C208.517 155.089 206.667 155.122 204.824 154.995C202.882 154.995 200.674 154.995 198.844 156.238C197.014 157.481 195.786 159.494 194.502 161.531C193.862 162.6 193.12 163.604 192.287 164.53C191.404 165.486 190.302 166.212 189.076 166.648C186.604 167.498 183.971 167.45 181.94 168.701C180.033 169.995 178.714 171.99 178.272 174.251C177.826 176.296 177.651 178.391 177.75 180.482C177.82 182.326 177.755 184.173 177.558 186.008C177.321 188.719 176.023 191.226 173.946 192.985C173.37 193.439 172.714 193.779 172.011 193.988C171.829 194.041 171.644 194.083 171.457 194.116C171.385 194.139 171.308 194.147 171.233 194.14Z" fill="#455A64"/>
<path d="M179.275 160.921C179.798 161.105 180.335 161.247 180.881 161.346C182.364 161.527 183.868 161.28 185.215 160.633C187.179 159.6 188.936 158.217 190.4 156.55C191.283 155.652 192.206 154.69 193.25 153.784C194.32 152.818 195.543 152.038 196.87 151.474C198.218 150.948 199.652 150.676 201.1 150.672C202.427 150.668 203.754 150.741 205.073 150.888C206.325 151.009 207.481 151.137 208.621 151.145C209.651 151.162 210.681 151.079 211.695 150.896C213.166 150.666 214.551 150.052 215.708 149.116C216.106 148.743 216.484 148.35 216.84 147.937C216.782 148.068 216.709 148.191 216.623 148.306C216.53 148.453 216.426 148.592 216.31 148.723C216.159 148.908 215.993 149.08 215.813 149.236C214.657 150.249 213.243 150.924 211.727 151.185C210.697 151.391 209.648 151.493 208.597 151.49C207.465 151.49 206.269 151.378 205.009 151.273C203.705 151.135 202.395 151.07 201.084 151.081C199.687 151.079 198.302 151.335 196.998 151.835C194.341 152.933 192.431 155.043 190.649 156.799C189.146 158.485 187.335 159.868 185.311 160.873C183.913 161.52 182.353 161.732 180.833 161.483C180.423 161.405 180.024 161.279 179.645 161.106C179.516 161.057 179.392 160.995 179.275 160.921Z" fill="#455A64"/>
<path d="M237.348 183.409C237.546 182.918 237.678 182.403 237.742 181.877C237.816 180.439 237.415 179.016 236.602 177.827C235.671 176.223 233.945 174.876 232.195 173.168C231.253 172.276 230.464 171.236 229.859 170.088C229.273 168.828 228.935 167.466 228.864 166.078C228.679 163.231 229.169 160.568 229.105 158.154C229.197 156.019 228.576 153.915 227.339 152.171C226.475 151.02 225.224 150.219 223.815 149.918C223.284 149.841 222.745 149.828 222.21 149.878C222.34 149.819 222.478 149.782 222.619 149.765C223.016 149.711 223.418 149.711 223.815 149.765C225.296 150.014 226.628 150.81 227.548 151.995C228.792 153.431 229.434 155.708 229.466 158.154C229.498 160.6 229.073 163.279 229.257 166.054C229.322 167.397 229.643 168.714 230.205 169.936C230.781 171.049 231.537 172.06 232.444 172.927C234.146 174.627 235.903 176.055 236.827 177.739C237.649 178.987 238.02 180.478 237.878 181.966C237.827 182.363 237.713 182.75 237.541 183.113C237.489 183.219 237.424 183.319 237.348 183.409Z" fill="#455A64"/>
<path d="M166.312 188.213C166.135 188.13 165.964 188.037 165.799 187.933C165.333 187.619 164.914 187.241 164.554 186.81C163.891 186.002 163.411 185.061 163.145 184.051C162.879 183.04 162.834 181.984 163.013 180.955C163.143 180.27 163.373 179.608 163.696 178.99C164.08 178.343 164.555 177.754 165.108 177.242C166.376 176.2 167.78 175.337 169.282 174.676C170.915 173.978 172.422 173.019 173.745 171.836C175.023 170.432 175.897 168.708 176.273 166.848C176.755 164.947 177.076 163.022 177.71 161.234C178.304 159.524 179.088 157.886 180.046 156.35C181.655 153.743 183.721 151.447 186.146 149.573C187.775 148.31 189.561 147.264 191.46 146.461C191.97 146.237 192.493 146.041 193.025 145.876C193.206 145.801 193.394 145.747 193.587 145.715C193.587 145.763 192.832 146.004 191.524 146.614C189.666 147.464 187.922 148.541 186.331 149.822C183.963 151.701 181.946 153.985 180.375 156.566C179.441 158.081 178.679 159.695 178.103 161.378C177.493 163.127 177.172 165.027 176.675 166.992C176.283 168.925 175.37 170.714 174.034 172.165C172.678 173.375 171.133 174.353 169.459 175.061C167.982 175.699 166.597 176.533 165.341 177.539C164.811 178.023 164.352 178.579 163.976 179.191C163.66 179.774 163.433 180.401 163.302 181.051C163.103 182.181 163.166 183.342 163.487 184.444C163.733 185.28 164.136 186.061 164.675 186.746C165.155 187.303 165.706 187.796 166.312 188.213Z" fill="#263238"/>
<path d="M239.612 184.155C239.572 184.155 239.949 183.77 240.463 183.008C241.17 181.931 241.656 180.723 241.891 179.456C242.227 177.575 242.159 175.645 241.691 173.793C241.067 171.533 240.097 169.383 238.817 167.418C237.493 165.292 236.064 163.367 234.86 161.547C233.769 159.944 232.821 158.248 232.027 156.478C231.493 155.28 231.102 154.023 230.863 152.733C230.8 152.383 230.757 152.029 230.734 151.674C230.717 151.552 230.717 151.428 230.734 151.305C230.734 151.305 230.831 151.811 231.031 152.701C231.323 153.971 231.745 155.207 232.291 156.39C233.121 158.122 234.087 159.784 235.181 161.362C236.393 163.167 237.838 165.084 239.194 167.233C240.498 169.235 241.476 171.43 242.092 173.737C242.551 175.644 242.59 177.629 242.204 179.552C241.931 180.847 241.384 182.07 240.599 183.137C240.387 183.424 240.151 183.692 239.893 183.939C239.809 184.023 239.715 184.096 239.612 184.155Z" fill="#263238"/>
<path d="M156.239 295.938L149.649 307.399C149.649 307.399 116.892 295.425 97.7164 298.914C90.4201 300.237 82.6182 316.766 93.2455 327.385C103.608 337.738 122.141 352.383 156.921 357.123C157.788 357.235 172.035 360.291 171.152 360.186C170.269 360.082 191.123 363.394 191.123 363.394L196.019 344.9L234.86 350.987C257.752 349.432 268.957 324.971 255.167 317.095C242.325 309.757 218.132 309.163 218.132 309.163L209.367 295.433L156.239 295.938Z" fill="#263238"/>
<path d="M191.917 364.108C192.014 363.482 192.295 361.798 192.856 358.342C193.169 356.497 193.547 354.251 194.036 351.669C194.285 350.37 194.558 348.998 194.887 347.547C195.056 346.817 195.232 346.079 195.449 345.317C195.553 344.94 195.666 344.563 195.802 344.178C195.925 343.764 196.127 343.378 196.396 343.039L196.452 343.32C188.185 340.385 177.847 336.511 166.834 331.868C160.059 328.988 153.67 326.085 148.044 323.046C145.36 321.648 142.784 320.053 140.338 318.274C138.058 316.59 136.02 314.905 134.109 313.462C130.337 310.478 126.885 308.553 124.341 307.735C123.78 307.536 123.21 307.368 122.631 307.23C122.212 307.112 121.786 307.021 121.355 306.957L120.552 306.813L120.279 306.749C120.373 306.738 120.467 306.738 120.56 306.749L121.363 306.853C121.801 306.9 122.236 306.978 122.663 307.086C123.25 307.208 123.829 307.366 124.397 307.559C125.961 308.065 127.468 308.735 128.892 309.556C130.776 310.645 132.581 311.864 134.294 313.205C136.22 314.657 138.259 316.325 140.547 318.017C142.987 319.777 145.554 321.353 148.228 322.733C153.847 325.732 160.228 328.628 166.994 331.499C177.999 336.134 188.321 340.04 196.565 343.015L196.798 343.104L196.621 343.296C196.396 343.602 196.225 343.943 196.115 344.307C195.979 344.676 195.866 345.052 195.754 345.421C195.537 346.167 195.353 346.913 195.184 347.627C194.847 349.071 194.558 350.442 194.301 351.733C193.788 354.316 193.386 356.545 193.049 358.39C192.712 360.234 192.439 361.638 192.246 362.64C192.15 363.13 192.078 363.507 192.014 363.755C191.989 363.875 191.957 363.993 191.917 364.108Z" fill="#455A64"/>
<path d="M247.638 319.341H247.422L246.82 319.244C246.29 319.172 245.519 318.98 244.5 318.875C241.645 318.5 238.761 318.398 235.887 318.571C231.623 318.845 227.396 319.543 223.269 320.656C220.942 321.273 218.518 322.011 216.045 322.869C213.573 323.727 211.037 324.714 208.444 325.749C205.914 326.751 203.328 327.606 200.698 328.307C198.154 329.005 195.674 329.55 193.298 330.007C188.546 330.937 184.22 331.507 180.592 331.948C176.964 332.389 174.018 332.686 171.987 332.894L169.643 333.127L169.033 333.175C168.964 333.186 168.894 333.186 168.825 333.175H169.025L169.635 333.087L171.963 332.774L180.552 331.699C184.18 331.218 188.49 330.617 193.218 329.67C195.585 329.205 198.034 328.652 200.586 327.946C203.2 327.244 205.773 326.395 208.292 325.404C210.876 324.369 213.421 323.375 215.917 322.524C218.413 321.674 220.837 320.92 223.181 320.319C227.334 319.219 231.589 318.55 235.879 318.322C238.771 318.171 241.67 318.316 244.532 318.755C245.551 318.883 246.314 319.108 246.844 319.204L247.446 319.341C247.51 319.332 247.575 319.332 247.638 319.341Z" fill="#455A64"/>
<path d="M187.792 312.684C187.792 312.956 186.058 313.398 183.144 313.67C175.536 314.292 167.879 313.476 160.573 311.264C157.788 310.382 156.159 309.572 156.239 309.307C156.423 308.73 163.302 310.558 171.971 311.457C180.64 312.355 187.735 312.074 187.792 312.684Z" fill="#263238"/>
<path d="M218.502 309.436C218.083 309.583 217.654 309.698 217.217 309.781C216.711 309.883 216.21 310.011 215.716 310.166C215.138 310.334 214.472 310.51 213.758 310.767C212.07 311.331 210.414 311.987 208.797 312.732C206.983 313.598 205.025 314.625 203.026 315.812C199.641 317.876 196.394 320.158 193.306 322.645C192.118 323.591 191.163 324.377 190.513 324.922C190.186 325.22 189.834 325.488 189.461 325.724C189.75 325.389 190.064 325.075 190.4 324.786C191.026 324.201 191.949 323.383 193.121 322.38C196.169 319.81 199.41 317.48 202.818 315.411C204.701 314.287 206.644 313.264 208.637 312.347C210.272 311.608 211.953 310.973 213.67 310.446C214.392 310.206 215.066 310.045 215.66 309.901C216.162 309.764 216.671 309.657 217.185 309.58C217.619 309.494 218.06 309.446 218.502 309.436Z" fill="#455A64"/>
<path d="M182.085 325.74C181.292 325.621 180.517 325.4 179.781 325.083C177.984 324.397 176.229 323.607 174.524 322.717L169.443 320.046C168.72 319.713 168.02 319.333 167.348 318.907C168.12 319.121 168.867 319.414 169.579 319.781C170.92 320.391 172.734 321.321 174.732 322.34C176.731 323.358 178.553 324.241 179.909 324.81C181.266 325.379 182.101 325.676 182.085 325.74Z" fill="#455A64"/>
<path d="M185.624 297.317C185.689 297.317 185.576 298.52 185.456 300.453C185.335 302.386 185.223 305.057 185.279 308.008C185.335 310.959 185.552 313.622 185.745 315.563C185.896 316.6 185.995 317.644 186.042 318.691C185.936 318.434 185.866 318.164 185.833 317.889C185.721 317.359 185.592 316.581 185.456 315.619C185.108 313.107 184.91 310.576 184.862 308.04C184.815 305.508 184.914 302.974 185.159 300.453C185.263 299.483 185.36 298.705 185.448 298.168C185.472 297.878 185.531 297.593 185.624 297.317Z" fill="#455A64"/>
<path d="M189.277 298.505C189.277 298.505 189.132 298.633 188.931 298.873C188.65 299.209 188.472 299.618 188.418 300.052C188.372 300.364 188.394 300.682 188.481 300.985C188.569 301.288 188.719 301.569 188.923 301.809C189.204 302.058 189.547 302.226 189.916 302.295C190.285 302.365 190.666 302.333 191.018 302.203C191.37 302.072 191.68 301.849 191.914 301.557C192.149 301.264 192.3 300.913 192.351 300.542C192.343 300.224 192.267 299.911 192.129 299.625C191.99 299.339 191.792 299.085 191.548 298.881C191.225 298.587 190.824 298.392 190.392 298.32C190.079 298.272 189.903 298.32 189.895 298.264C189.887 298.208 190.063 298.16 190.408 298.16C190.895 298.174 191.364 298.349 191.741 298.657C192.034 298.879 192.273 299.164 192.438 299.493C192.604 299.821 192.692 300.182 192.696 300.55C192.659 301.006 192.492 301.443 192.215 301.808C191.938 302.173 191.563 302.452 191.133 302.611C190.703 302.77 190.236 302.803 189.788 302.707C189.34 302.61 188.928 302.388 188.602 302.065C188.369 301.782 188.202 301.449 188.115 301.092C188.027 300.736 188.021 300.364 188.097 300.004C188.182 299.522 188.425 299.083 188.787 298.753C189.076 298.537 189.268 298.489 189.277 298.505Z" fill="#455A64"/>
<path d="M199.246 285.295C199.068 285.585 198.858 285.854 198.62 286.097C198.017 286.813 197.374 287.493 196.693 288.135C195.686 289.093 194.613 289.98 193.483 290.789C192.091 291.774 190.629 292.656 189.108 293.428C187.579 294.179 185.996 294.814 184.372 295.328C183.042 295.742 181.685 296.063 180.311 296.291C179.39 296.452 178.459 296.556 177.526 296.604C177.184 296.637 176.84 296.637 176.498 296.604C176.498 296.523 177.951 296.443 180.263 295.994C181.62 295.725 182.96 295.377 184.276 294.952C188.792 293.477 192.952 291.082 196.493 287.918C198.242 286.362 199.181 285.247 199.246 285.295Z" fill="#263238"/>
<path d="M213.894 294.198C213.894 294.318 212.45 294.318 210.748 294.751C209.046 295.184 207.762 295.826 207.698 295.722C209.479 294.413 211.708 293.865 213.894 294.198Z" fill="#263238"/>
<g opacity="0.3">
<path d="M180.206 296.203C187.184 294.925 193.506 291.276 198.098 285.873C198.516 287.143 198.573 288.503 198.262 289.803C197.952 291.103 197.286 292.291 196.34 293.235C198.379 294.198 200.771 293.556 203.002 293.235C205.234 292.915 207.963 293.235 209.03 295.216C199.047 296.14 189.014 296.426 178.994 296.074" fill="black"/>
</g>
<path d="M160.276 280.483C159.27 279.532 158.098 278.773 156.817 278.246C155.418 277.704 153.925 277.45 152.426 277.5C150.594 277.566 148.802 278.048 147.185 278.911C143.685 280.724 141.566 283.82 140.025 285.801C139.428 286.633 138.891 287.506 138.42 288.415C138.264 288.757 138.078 289.084 137.866 289.394C137.967 289.031 138.104 288.679 138.275 288.343C138.687 287.398 139.181 286.491 139.752 285.632C140.498 284.558 141.462 283.355 142.569 282.039C143.811 280.615 145.302 279.427 146.968 278.535C148.644 277.644 150.505 277.158 152.402 277.115C153.949 277.084 155.486 277.376 156.913 277.973C157.873 278.365 158.754 278.928 159.514 279.633C159.725 279.818 159.918 280.022 160.092 280.243C160.228 280.395 160.292 280.475 160.276 280.483Z" fill="#263238"/>
<path d="M181.29 203.556L170.085 205.938L175.687 226.894L195.529 231.152L209.143 221.504L211.013 209.948L199.342 205.537L181.29 203.556Z" fill="#FFBE9D"/>
<path d="M173.4 205.08C173.4 205.08 180.985 227.086 195 225.049C209.014 223.012 207.842 208.753 207.842 208.753C207.842 208.753 222.467 213.212 226.986 217.952C231.505 222.692 228.84 232.997 228.84 232.997L225.051 251.62L216.8 287.293C216.8 287.293 219.954 297.029 211.888 299.435L209.343 295.425L160.966 296.788C160.966 296.788 150.62 308.706 147.393 304.6C144.167 300.494 141.068 292.474 141.068 292.474L163.294 207.718L173.4 205.08Z" fill="#455A64"/>
<path d="M223.165 215.136C223.558 215.361 257.511 239.998 257.511 239.998C257.511 239.998 254.846 260.273 271.157 257.049C271.157 257.049 264.575 274.003 255.665 270.442C253.129 269.432 221.833 249.647 221.833 249.647L215.195 235.523L223.165 215.136Z" fill="#455A64"/>
<path d="M173.4 206.162C173.4 206.162 172.597 206.162 171.337 206.306C164.691 206.948 140.161 212.025 137.89 229.324C136.702 238.37 136.365 264.828 135.081 275.92C135.081 275.92 137.127 291.335 137.89 294.19C139.246 299.274 163.824 291.126 163.824 291.126L163.872 242.204L172.653 206.186" fill="#455A64"/>
<path d="M157.876 250.609C157.898 250.739 157.898 250.872 157.876 251.002C157.882 251.383 157.909 251.763 157.957 252.141C158.131 253.516 158.479 254.863 158.992 256.151C159.618 257.803 160.597 259.68 161.528 261.829C162.04 262.957 162.469 264.12 162.813 265.31C163.157 266.593 163.38 267.906 163.479 269.232C163.622 271.783 163.555 274.342 163.278 276.883C163.078 279.224 162.885 281.334 162.596 283.09C162.377 284.479 162.052 285.849 161.625 287.188C161.464 287.662 161.328 287.99 161.223 288.263C161.182 288.391 161.123 288.513 161.047 288.624C161.047 288.624 161.199 288.095 161.472 287.14C161.831 285.794 162.099 284.424 162.275 283.042C162.532 281.294 162.692 279.192 162.877 276.859C163.123 274.335 163.176 271.796 163.037 269.264C162.943 267.963 162.728 266.675 162.395 265.414C162.061 264.242 161.645 263.095 161.151 261.981C160.22 259.84 159.289 257.931 158.687 256.255C158.188 254.931 157.88 253.543 157.772 252.133C157.739 251.751 157.739 251.368 157.772 250.986C157.795 250.858 157.83 250.731 157.876 250.609Z" fill="#263238"/>
<path d="M159.008 244.434C159.08 244.434 159.136 245.677 159.417 247.642C159.781 250.228 160.381 252.775 161.207 255.253C161.456 255.982 161.713 256.68 162.01 257.354C162.068 257.51 162.135 257.662 162.211 257.811L162.5 258.252C162.686 258.545 162.857 258.848 163.013 259.158C163.588 260.224 163.899 261.412 163.92 262.623C163.925 263.448 163.764 264.267 163.447 265.029C163.336 265.315 163.187 265.584 163.005 265.831C163.411 264.838 163.621 263.776 163.623 262.703C163.565 261.546 163.241 260.419 162.676 259.407C162.524 259.118 162.347 258.829 162.162 258.541L161.874 258.1C161.776 257.934 161.696 257.76 161.633 257.578C161.352 256.905 161.095 256.191 160.83 255.461C159.987 252.959 159.422 250.371 159.144 247.746C159.032 246.743 159 245.917 158.992 245.34C158.962 245.038 158.967 244.734 159.008 244.434Z" fill="#263238"/>
<path d="M159.987 237.087C159.923 237.087 159.554 236.085 158.831 234.505C157.886 232.441 156.75 230.47 155.436 228.618C154.112 226.777 152.621 225.061 150.981 223.493C149.721 222.29 148.87 221.609 148.918 221.552C149.15 221.662 149.366 221.803 149.561 221.97C150.118 222.377 150.654 222.814 151.166 223.277C154.615 226.331 157.324 230.13 159.088 234.384C159.417 235.186 159.658 235.868 159.795 236.341C159.89 236.581 159.954 236.832 159.987 237.087Z" fill="#263238"/>
<path d="M229.554 222.715C229.571 223.366 229.517 224.017 229.394 224.656C229.249 225.851 229.041 227.495 228.856 229.316C228.671 231.136 228.519 232.788 228.415 233.991C228.402 234.642 228.322 235.29 228.174 235.924C228.082 235.279 228.063 234.625 228.118 233.975C228.118 232.764 228.246 231.104 228.439 229.276C228.631 227.447 228.88 225.795 229.097 224.616C229.178 223.967 229.331 223.33 229.554 222.715Z" fill="#263238"/>
<path d="M236.538 243.311C236.538 243.383 235.478 243.487 233.833 243.952C231.69 244.546 229.74 245.688 228.174 247.265C227.342 248.156 226.617 249.141 226.015 250.2C225.542 251.08 225.129 251.991 224.778 252.927L224.385 254.018C224.289 254.314 224.209 254.595 224.128 254.82C224.071 255.065 223.982 255.303 223.863 255.525C223.859 255.272 223.897 255.02 223.976 254.779L224.16 253.921L224.498 252.799C224.816 251.831 225.211 250.889 225.677 249.984C226.284 248.906 227.023 247.91 227.877 247.016C229.484 245.383 231.521 244.238 233.752 243.712C234.132 243.607 234.518 243.53 234.908 243.479C235.197 243.424 235.489 243.387 235.783 243.367C236.03 243.309 236.285 243.29 236.538 243.311Z" fill="#263238"/>
<path d="M259.02 265.63C258.809 265.351 258.629 265.05 258.482 264.732C258.314 264.443 258.121 264.074 257.921 263.633C257.72 263.192 257.479 262.711 257.27 262.142C256.742 260.825 256.31 259.471 255.978 258.092C255.576 256.396 255.307 254.672 255.176 252.935C255.066 251.2 255.096 249.46 255.264 247.73C255.411 246.319 255.657 244.92 256.002 243.543C256.131 242.95 256.315 242.429 256.452 241.939C256.562 241.544 256.696 241.155 256.853 240.776C256.958 240.442 257.098 240.119 257.27 239.814C257.351 239.814 256.813 241.234 256.291 243.575C255.992 244.946 255.777 246.333 255.649 247.73C255.506 249.442 255.484 251.163 255.585 252.879C255.714 254.592 255.966 256.294 256.339 257.971C256.652 259.331 257.048 260.671 257.527 261.981C258.378 264.283 259.093 265.598 259.02 265.63Z" fill="#263238"/>
<path d="M250.199 259.607C250.053 259.337 249.945 259.049 249.878 258.749C249.654 257.96 249.488 257.156 249.38 256.343C249.036 253.605 249.293 250.824 250.135 248.195C250.953 245.555 252.355 243.132 254.236 241.105C254.801 240.452 255.587 240.03 256.444 239.918C256.679 239.912 256.912 239.958 257.126 240.055C257.262 240.127 257.335 240.175 257.327 240.191C257.044 240.1 256.748 240.062 256.452 240.079C255.666 240.251 254.962 240.684 254.453 241.306C252.675 243.346 251.341 245.733 250.536 248.315C249.717 250.905 249.423 253.631 249.669 256.335C249.878 258.34 250.271 259.583 250.199 259.607Z" fill="#263238"/>
<path d="M195 255.614C194.974 255.939 194.907 256.26 194.799 256.568C194.714 256.938 194.607 257.302 194.478 257.659C194.323 258.138 194.143 258.609 193.94 259.07C193.433 260.282 192.821 261.447 192.11 262.551C190.362 265.273 188.076 267.609 185.392 269.416C184.302 270.154 183.15 270.795 181.948 271.333C181.491 271.546 181.022 271.734 180.544 271.894C180.192 272.04 179.83 272.158 179.46 272.247C179.153 272.354 178.835 272.429 178.513 272.472C178.513 272.391 179.829 272.031 181.82 271.068C182.987 270.5 184.109 269.843 185.175 269.103C186.467 268.185 187.681 267.16 188.803 266.04C189.899 264.894 190.895 263.657 191.781 262.342C192.498 261.263 193.129 260.129 193.667 258.95C194.59 256.937 194.919 255.59 195 255.614Z" fill="#263238"/>
<g opacity="0.3">
<path d="M167.203 263.553L162.58 246.711C162.355 245.909 161.978 244.923 161.135 244.771C160.739 244.757 160.351 244.89 160.047 245.145C159.744 245.399 159.545 245.758 159.49 246.15C159.377 246.967 159.377 247.795 159.49 248.612C159.851 252.277 160.14 254.763 161.849 257.603C165.18 263.136 162.989 265.823 162.989 265.823C163.254 272.56 162.684 281.751 160.581 288.672L162.564 297.021C164.442 290.813 168.736 285.64 169.459 279.192C170.013 273.907 168.64 268.67 167.203 263.553Z" fill="black"/>
</g>
<g opacity="0.3">
<path d="M225.067 251.732C230.566 254.587 235.454 258.533 240.808 261.588C238.713 257.217 235.189 252.895 230.951 250.577C229.845 249.864 228.541 249.518 227.227 249.59C225.926 249.775 224.995 250.505 225.196 251.796" fill="black"/>
</g>
<g opacity="0.3">
<path d="M256.572 239.646C254.694 239.598 253.281 241.306 252.358 242.942C249.762 247.597 248.701 252.952 249.324 258.244C249.436 259.19 249.79 260.329 250.729 260.514C251.075 260.552 251.425 260.476 251.725 260.298C252.024 260.12 252.258 259.85 252.39 259.527C252.648 258.884 252.755 258.19 252.703 257.498C252.703 254.29 252.478 251.042 252.944 247.874C253.41 244.706 254.606 241.498 256.957 239.325" fill="black"/>
</g>
<path d="M171.674 245.669H171.867L172.421 245.629L174.596 245.516L182.815 245.139L211.928 243.904H212.12V244.089C212.361 253.873 212.642 265.133 212.923 277.051V278.246V278.454H212.787C200.793 278.593 188.82 279.487 176.94 281.133H176.787L176.747 280.981C174.444 272.552 173.01 263.909 172.469 255.188C172.276 252.029 172.244 249.574 172.244 247.858C172.244 247.056 172.244 246.366 172.244 245.925V245.436C172.244 245.324 172.244 245.268 172.244 245.268C172.251 245.324 172.251 245.38 172.244 245.436V245.933C172.244 246.382 172.244 247.032 172.244 247.858C172.244 249.55 172.348 252.029 172.565 255.172C173.18 263.871 174.659 272.486 176.98 280.893L176.779 280.756C188.71 279.063 200.737 278.144 212.787 278.005L212.578 278.222V277.027C212.297 265.109 212.04 253.849 211.775 244.065L211.968 244.249L182.847 245.332L174.62 245.605L172.445 245.669H171.698H171.674Z" fill="white"/>
<path d="M182.285 269.977C182.173 269.977 181.17 264.58 180.046 257.875C178.922 251.17 178.103 245.725 178.216 245.701C178.328 245.677 179.332 251.098 180.455 257.811C181.579 264.524 182.366 269.961 182.285 269.977Z" fill="white"/>
<path d="M183.457 280.323C183.026 278.897 182.728 277.433 182.566 275.952C182.27 274.489 182.109 273.002 182.085 271.509C182.517 272.938 182.815 274.404 182.976 275.888C183.281 277.347 183.442 278.832 183.457 280.323Z" fill="white"/>
<path d="M190.376 264.612C190.262 264.377 190.186 264.125 190.151 263.866C190.031 263.385 189.879 262.671 189.71 261.797C189.373 260.04 188.996 257.602 188.723 254.892C188.45 252.181 188.345 249.711 188.321 247.93C188.321 247.032 188.321 246.326 188.321 245.813C188.314 245.544 188.338 245.275 188.394 245.011C188.523 245.965 188.59 246.927 188.594 247.89C188.691 249.671 188.843 252.125 189.116 254.827C189.389 257.53 189.718 259.96 189.975 261.725C190.166 262.678 190.3 263.642 190.376 264.612Z" fill="white"/>
<path d="M189.461 279.249C189.023 277.383 188.719 275.488 188.554 273.578C188.244 271.688 188.078 269.776 188.057 267.86C188.494 269.726 188.797 271.621 188.964 273.53C189.274 275.421 189.44 277.333 189.461 279.249Z" fill="white"/>
<path d="M198.531 278.599C198.447 278.162 198.393 277.72 198.371 277.276L198.058 273.667C197.793 270.627 197.4 266.449 196.87 261.789C196.34 257.129 195.762 252.967 195.329 249.943C195.12 248.484 194.943 247.273 194.815 246.358C194.733 245.922 194.685 245.479 194.67 245.035C194.811 245.458 194.913 245.893 194.975 246.334C195.144 247.136 195.361 248.388 195.618 249.895C196.131 252.919 196.749 257.113 197.287 261.741C197.825 266.368 198.162 270.563 198.355 273.651C198.443 275.174 198.507 276.409 198.531 277.268C198.573 277.71 198.573 278.156 198.531 278.599Z" fill="white"/>
<path d="M206.253 279.032C206.195 278.585 206.173 278.135 206.189 277.684C206.189 276.746 206.189 275.503 206.189 274.011C206.189 270.916 206.076 266.633 205.86 261.917C205.643 257.201 205.306 252.927 205.057 249.839C204.929 248.355 204.824 247.12 204.744 246.19C204.687 245.743 204.663 245.293 204.672 244.843C204.79 245.276 204.868 245.719 204.904 246.166C205.033 247.024 205.185 248.275 205.354 249.815C205.691 252.895 206.06 257.169 206.293 261.893C206.526 266.617 206.55 270.908 206.502 274.011C206.502 275.559 206.446 276.818 206.405 277.684C206.388 278.137 206.337 278.587 206.253 279.032Z" fill="white"/>
<g opacity="0.3">
<path d="M179.147 272.528C180.404 273.328 181.892 273.689 183.377 273.554C184.852 273.42 186.295 273.044 187.647 272.439C189.489 271.754 191.15 270.657 192.503 269.231C193.818 267.599 194.652 265.633 194.911 263.553C195.177 261.477 195.247 259.379 195.12 257.29C195.128 257.199 195.105 257.109 195.056 257.033C195.027 257.003 194.992 256.979 194.953 256.963C194.914 256.946 194.873 256.938 194.831 256.938C194.789 256.938 194.748 256.946 194.709 256.963C194.67 256.979 194.635 257.003 194.606 257.033C194.487 257.156 194.401 257.308 194.357 257.474C193.129 260.968 191.083 264.118 188.389 266.663C185.696 269.207 182.434 271.072 178.874 272.103" fill="black"/>
</g>
<path d="M174.178 339.703L169.274 330.512L158.245 278.936C158.245 278.936 148.1 273.113 139.784 285.873C139.455 286.386 151.214 323.326 154.497 333.6L154.955 343.432C154.955 343.432 154.377 355.069 154.955 356.088C155.471 356.802 156.177 357.357 156.993 357.692C156.993 357.692 156.56 360.603 159.907 360.9C159.907 360.9 160.196 364.108 162.668 363.667C163.34 363.585 163.987 363.361 164.566 363.01C165.144 362.659 165.641 362.188 166.023 361.63C166.023 361.63 166.023 365.696 168.207 365.263C170.39 364.83 170.743 363.081 171.144 362.504C171.546 361.927 172.011 355.952 172.011 355.952L171.971 346.103L177.654 350.707C179.259 351.509 181.707 352.535 183.072 351.308L174.178 339.703Z" fill="#FFBE9D"/>
<path d="M171.979 345.598C172.353 347.341 172.461 349.131 172.3 350.907C172.236 352.271 172.18 353.514 172.124 354.652C172.141 355.172 172.093 355.693 171.979 356.2C171.755 354.439 171.723 352.659 171.883 350.891C172.027 347.972 171.851 345.614 171.979 345.598Z" fill="#EB996E"/>
<path d="M165.718 352.463C166.039 355.701 166.082 358.961 165.847 362.207C165.526 358.969 165.483 355.709 165.718 352.463Z" fill="#EB996E"/>
<path d="M160.469 354.251C160.839 356.515 160.615 358.837 159.819 360.988C159.706 360.988 159.995 359.472 160.164 357.62C160.204 356.492 160.305 355.368 160.469 354.251Z" fill="#EB996E"/>
<path d="M157.09 353.113C157.225 354.589 157.078 356.078 156.656 357.499C156.515 356.768 156.515 356.017 156.656 355.286C156.667 354.541 156.814 353.805 157.09 353.113Z" fill="#EB996E"/>
<path d="M168.11 152.163L160.726 139.155C165.291 131.75 166.918 122.906 165.289 114.363C163.659 105.819 158.891 98.194 151.92 92.9851C144.949 87.7763 136.281 85.3609 127.619 86.2136C118.956 87.0663 110.926 91.1256 105.107 97.5935C99.2876 104.061 96.1 112.47 96.1706 121.167C96.2411 129.864 99.5647 138.22 105.488 144.593C111.412 150.965 119.506 154.894 128.181 155.606C136.857 156.319 145.485 153.763 152.37 148.442L168.11 152.163Z" fill="white"/>
<path d="M168.11 152.163L152.338 148.554C152.324 148.553 152.311 148.548 152.3 148.541C152.288 148.533 152.278 148.524 152.27 148.512C152.263 148.501 152.258 148.488 152.256 148.475C152.253 148.461 152.254 148.447 152.258 148.434C152.258 148.434 152.258 148.434 152.258 148.394L152.402 148.538C150.194 150.254 147.791 151.703 145.242 152.853C142.218 154.212 139.015 155.132 135.731 155.588C133.907 155.842 132.064 155.933 130.224 155.861C129.269 155.812 128.306 155.788 127.335 155.708L124.389 155.259C115.624 153.541 107.842 148.551 102.629 141.304C99.7316 137.294 97.7257 132.711 96.7451 127.863C95.7391 122.736 95.8789 117.451 97.1545 112.384C98.4708 107.091 101.03 102.186 104.619 98.0765L106.04 96.4725C106.514 95.9432 107.067 95.5101 107.573 95.0289C108.079 94.5477 108.584 94.0585 109.178 93.6575L110.848 92.4064C111.398 91.9837 111.978 91.6005 112.582 91.2595L114.348 90.1928L116.194 89.2946C116.8 88.9884 117.424 88.7205 118.064 88.4926C123.018 86.5297 128.352 85.7073 133.668 86.0866C138.697 86.4259 143.589 87.8691 147.995 90.3131C155.905 94.7346 161.811 102.025 164.49 110.676C165.572 114.348 166.083 118.165 166.007 121.992C165.91 125.313 165.337 128.602 164.306 131.76C163.436 134.385 162.262 136.9 160.806 139.251V139.147L168.102 152.203L160.613 139.203C160.606 139.188 160.602 139.172 160.602 139.155C160.602 139.138 160.606 139.122 160.613 139.107C162.041 136.762 163.191 134.259 164.041 131.648C165.055 128.51 165.612 125.241 165.694 121.944C165.755 118.145 165.238 114.36 164.161 110.716C161.47 102.171 155.604 94.9819 147.771 90.6259C143.411 88.217 138.574 86.796 133.604 86.4635C128.346 86.0992 123.073 86.9215 118.176 88.8695C117.545 89.0989 116.929 89.3668 116.33 89.6715L114.508 90.5537L112.758 91.6124C112.163 91.9499 111.592 92.3277 111.049 92.7432L109.395 93.9783C108.833 94.3793 108.36 94.8926 107.838 95.3417C107.316 95.7908 106.786 96.2399 106.329 96.7612L104.924 98.3091C101.374 102.369 98.8427 107.216 97.5398 112.448C96.2777 117.454 96.1352 122.676 97.1224 127.742C98.0895 132.536 100.068 137.069 102.926 141.04C108.077 148.219 115.767 153.173 124.437 154.898L127.351 155.347C128.314 155.428 129.269 155.452 130.208 155.508C132.037 155.585 133.869 155.5 135.683 155.251C138.953 154.819 142.145 153.923 145.162 152.588C147.699 151.46 150.094 150.035 152.298 148.346C152.307 148.335 152.319 148.327 152.332 148.321C152.346 148.316 152.36 148.313 152.374 148.313C152.388 148.313 152.402 148.316 152.416 148.321C152.429 148.327 152.44 148.335 152.45 148.346C152.462 148.365 152.469 148.387 152.469 148.41C152.469 148.433 152.462 148.455 152.45 148.474L152.394 148.306L168.11 152.163Z" fill="#263238"/>
<path d="M120.841 114.317C120.296 114.06 119.708 113.908 119.107 113.868C118.227 113.727 117.324 113.815 116.488 114.124C115.651 114.433 114.908 114.953 114.332 115.632C118.096 117.814 123.225 120.709 126.893 122.802L131.525 120.156C128.186 118.319 123.996 116.009 120.841 114.317Z" fill="#191F20"/>
<g opacity="0.3">
<path d="M120.841 114.317C120.296 114.06 119.708 113.908 119.107 113.868C118.227 113.727 117.324 113.815 116.488 114.124C115.651 114.433 114.908 114.953 114.332 115.632C118.096 117.814 123.225 120.709 126.893 122.802L131.525 120.156C128.186 118.319 123.996 116.009 120.841 114.317Z" fill="black"/>
</g>
<path d="M135.024 127.678L134.856 127.534C133.7 126.868 132.448 125.601 131.308 125.625C130.867 125.625 130.385 126.018 129.237 126.66C127.327 127.743 124.108 129.627 122.182 130.67C120.576 131.576 118.538 132.274 116.667 131.664C115.713 131.314 114.836 130.783 114.083 130.1L135.016 117.974C134.912 117.661 134.8 117.365 134.695 117.06C134.274 115.833 134.262 114.502 134.662 113.268C135.063 112.034 135.853 110.963 136.915 110.216C137.977 109.469 139.252 109.087 140.55 109.127C141.848 109.166 143.098 109.626 144.112 110.437C145.126 111.247 145.849 112.365 146.173 113.621C146.497 114.877 146.403 116.205 145.907 117.404C145.411 118.603 144.539 119.608 143.422 120.269C142.304 120.931 141.003 121.211 139.712 121.07C139.23 121.039 138.748 121.135 138.315 121.351C137.513 121.736 136.774 122.225 135.819 122.77C137.424 123.492 138.524 124.647 140.41 124.47C143.011 124.23 145.315 126.114 146.109 128.625C146.483 129.824 146.469 131.111 146.069 132.302C145.668 133.493 144.901 134.527 143.878 135.257C142.848 135.996 141.61 136.39 140.342 136.382C139.074 136.373 137.842 135.964 136.821 135.212C135.801 134.459 135.046 133.404 134.664 132.196C134.282 130.988 134.293 129.69 134.695 128.488C134.792 128.256 134.928 127.983 135.024 127.678ZM140.37 118.054C140.754 118.059 141.135 117.986 141.49 117.841C141.845 117.695 142.167 117.48 142.437 117.208C142.708 116.935 142.92 116.612 143.063 116.256C143.206 115.899 143.275 115.518 143.268 115.135C143.255 114.379 142.948 113.658 142.411 113.124C141.875 112.591 141.151 112.288 140.394 112.28C139.619 112.288 138.878 112.601 138.332 113.15C137.785 113.699 137.477 114.441 137.472 115.215C137.495 115.969 137.81 116.685 138.351 117.211C138.891 117.738 139.615 118.034 140.37 118.038V118.054ZM140.37 133.357C141.127 133.363 141.857 133.075 142.404 132.552C142.951 132.029 143.273 131.313 143.3 130.558C143.316 130.174 143.255 129.791 143.119 129.432C142.984 129.072 142.778 128.744 142.512 128.466C142.247 128.188 141.928 127.967 141.575 127.815C141.223 127.663 140.843 127.584 140.458 127.582C139.701 127.573 138.97 127.858 138.419 128.377C137.868 128.896 137.54 129.609 137.505 130.365C137.498 131.132 137.79 131.871 138.318 132.426C138.847 132.981 139.571 133.309 140.338 133.34L140.37 133.357Z" fill="#191F20"/>
<path d="M132.584 122.706C132.512 122.706 132.544 122.168 131.95 121.743C131.787 121.63 131.598 121.559 131.401 121.535C131.204 121.511 131.004 121.536 130.818 121.607C130.597 121.695 130.408 121.847 130.275 122.044C130.141 122.24 130.07 122.472 130.07 122.71C130.07 122.947 130.141 123.179 130.275 123.376C130.408 123.573 130.597 123.725 130.818 123.813C131.004 123.884 131.204 123.908 131.401 123.885C131.598 123.861 131.787 123.789 131.95 123.676C132.544 123.251 132.512 122.69 132.584 122.706C132.656 122.722 132.648 122.834 132.584 123.059C132.537 123.393 132.365 123.696 132.103 123.909C131.905 124.073 131.668 124.183 131.415 124.23C131.162 124.276 130.901 124.257 130.658 124.173C130.353 124.069 130.088 123.871 129.901 123.609C129.713 123.346 129.613 123.032 129.613 122.71C129.613 122.388 129.713 122.073 129.901 121.811C130.088 121.548 130.353 121.351 130.658 121.246C130.901 121.163 131.162 121.144 131.415 121.19C131.668 121.236 131.905 121.347 132.103 121.511C132.364 121.721 132.536 122.021 132.584 122.353C132.648 122.578 132.608 122.706 132.584 122.706Z" fill="#263238"/>
<path d="M137.705 121.687C137.569 121.789 137.427 121.883 137.28 121.968L136.084 122.69L132.127 125.016L128.113 127.293L126.893 127.967C126.748 128.057 126.595 128.135 126.436 128.2C126.57 128.093 126.712 127.996 126.861 127.911L128.057 127.189L132.014 124.871L136.028 122.594L137.248 121.912C137.394 121.825 137.547 121.75 137.705 121.687Z" fill="#263238"/>
<path d="M134.222 118.479C134.161 118.53 134.096 118.575 134.029 118.616L133.451 118.977L131.316 120.3C129.518 121.391 127.022 122.882 124.22 124.462L117.069 128.521L114.861 129.691L114.267 130.012L114.059 130.117C114.059 130.117 114.123 130.068 114.251 129.988L114.829 129.635L116.98 128.376L124.116 124.278C126.909 122.674 129.414 121.222 131.236 120.164L133.395 118.921L133.989 118.584L134.222 118.479Z" fill="#263238"/>
<path d="M266.822 162.148L268.347 164.931L271.132 166.455L268.347 167.979L266.822 170.762L265.297 167.979L262.512 166.455L265.297 164.931L266.822 162.148Z" fill="#191F20"/>
<path d="M277 124.037L278.581 123.933L279.857 122.987L279.962 124.575L280.909 125.85L279.32 125.954L278.043 126.893L277.939 125.313L277 124.037Z" fill="#191F20"/>
<path d="M533.741 250.593L535.322 250.489L536.598 249.542L536.703 251.13L537.65 252.405L536.061 252.51L534.784 253.448L534.68 251.868L533.741 250.593Z" fill="#191F20"/>
<path d="M352.892 171.411L354.473 171.307L355.758 170.369L355.862 171.949L356.801 173.224L355.22 173.328L353.936 174.267L353.839 172.687L352.892 171.411Z" fill="#191F20"/>
<path d="M362.54 103.642L364.121 103.538L365.398 102.6L365.502 104.18L366.441 105.455L364.86 105.559L363.584 106.506L363.479 104.918L362.54 103.642Z" fill="#191F20"/>
<path d="M313.939 145.699L316.347 144.312L317.623 141.85L319.012 144.256L321.484 145.539L319.076 146.918L317.791 149.388L316.403 146.982L313.939 145.699Z" fill="#191F20"/>
<path d="M516.251 282.448L518.659 281.061L519.935 278.599L521.324 281.005L523.788 282.28L521.38 283.668L520.104 286.13L518.715 283.724L516.251 282.448Z" fill="#191F20"/>
<path d="M504.155 238.459L506.563 237.071L507.847 234.609L509.236 237.015L511.7 238.29L509.292 239.678L508.007 242.148L506.627 239.734L504.155 238.459Z" fill="#191F20"/>
</svg>
