<svg width="29" height="27" viewBox="0 0 29 27" fill="none" xmlns="http://www.w3.org/2000/svg">
<path d="M13.0211 1.35823C13.5836 -0.368596 16.0266 -0.368596 16.5873 1.35823L18.5935 7.53056C18.716 7.90646 18.9543 8.234 19.2742 8.46635C19.5941 8.6987 19.9793 8.82398 20.3747 8.82427H26.8657C28.6825 8.82427 29.4363 11.1492 27.9682 12.2179L22.7183 16.0316C22.3978 16.2641 22.1591 16.5922 22.0365 16.9688C21.9139 17.3453 21.9137 17.7511 22.0359 18.1278L24.042 24.3001C24.6045 26.0269 22.6265 27.465 21.1546 26.3963L15.9048 22.5826C15.5845 22.3501 15.199 22.2249 14.8032 22.2249C14.4075 22.2249 14.0219 22.3501 13.7017 22.5826L8.45186 26.3963C6.9819 27.465 5.00571 26.0269 5.56632 24.3001L7.57251 18.1278C7.69471 17.7511 7.69449 17.3453 7.57189 16.9688C7.44928 16.5922 7.21059 16.2641 6.89003 16.0316L1.64206 12.2198C0.173973 11.1511 0.929576 8.82614 2.74452 8.82614H9.23372C9.62942 8.82625 10.015 8.70116 10.3353 8.46878C10.6556 8.23639 10.8941 7.90864 11.0168 7.53243L13.023 1.3601L13.0211 1.35823Z" fill="#F2AE00"/>
</svg>
