<svg width="29" height="27" viewBox="0 0 29 27" fill="none" xmlns="http://www.w3.org/2000/svg">
<path d="M15.4233 1.53367L15.4233 1.53386L17.4295 7.70618L17.4297 7.70669C17.5894 8.1965 17.8999 8.62329 18.3167 8.92606C18.7336 9.22882 19.2354 9.39206 19.7506 9.39244H19.7511H26.2421C27.5069 9.39244 28.035 11.0125 27.0102 11.7586L21.7611 15.5717C21.761 15.5717 21.761 15.5718 21.7609 15.5718C21.7609 15.5718 21.7608 15.5719 21.7608 15.5719C21.3433 15.8749 21.0323 16.3023 20.8726 16.7929C20.7129 17.2836 20.7126 17.8122 20.8718 18.3031L20.8719 18.3034L22.8781 24.4757L22.8782 24.4761C23.2697 25.678 21.8925 26.6826 20.865 25.9366C20.8649 25.9366 20.8649 25.9365 20.8649 25.9365L15.6151 22.1229L15.615 22.1229C15.1977 21.8199 14.6953 21.6568 14.1797 21.6568C13.664 21.6568 13.1616 21.8199 12.7443 22.1229L12.7442 22.1229L7.49434 25.9366L7.49416 25.9367C6.4705 26.681 5.09205 25.6801 5.48312 24.4755L7.48926 18.3034L7.48936 18.3031C7.64859 17.8122 7.6483 17.2835 7.48854 16.7929C7.32879 16.3022 7.01776 15.8747 6.60006 15.5717L1.35285 11.7605C0.328597 11.0148 0.857252 9.39431 2.12093 9.39431H8.60997C8.61002 9.39431 8.61007 9.39431 8.61012 9.39431C9.12568 9.39441 9.62806 9.23142 10.0454 8.92865C10.4627 8.62585 10.7735 8.19877 10.9334 7.70856L10.9335 7.70806L12.9397 1.53573L12.9654 1.45667C13.4042 0.330089 15.0415 0.357723 15.4233 1.53367Z" stroke="#F2AE00" stroke-width="1.13633"/>
</svg>
